<svg id="Layer_1" data-name="Layer 1" xmlns="http://www.w3.org/2000/svg" xmlns:xlink="http://www.w3.org/1999/xlink" viewBox="0 0 249.99 147.89"><defs><style>.cls-1{fill:url(#linear-gradient);}.cls-2{font-size:119.39px;fill:#fff;stroke:#fff;stroke-miterlimit:10;stroke-width:3px;font-family:OtterlyAdorable, Otterly Adorable;}</style><linearGradient id="linear-gradient" x1="91.02" y1="76.85" x2="221.81" y2="76.85" gradientUnits="userSpaceOnUse"><stop offset="0" stop-color="#aa367c"/><stop offset="1" stop-color="#4a2fbd"/></linearGradient></defs><path class="cls-1" d="M205.19,13.25l-1.91.25,15.95-2.14q-63.71,8.54-128,11.2c-15.79.67-31.09,6.23-42.43,17.57C38.39,50.54,30.56,67.61,31.23,82.56,31.92,98.07,37,114.17,48.8,125c11.45,10.52,26.43,18.25,42.43,17.58,48.88-2.08,97.39-7,145.86-13.6a45.21,45.21,0,0,0,20.4-10.74A45.29,45.29,0,0,0,273,101.39c7.52-12.86,10.71-31.82,6.05-46.24S265.3,26.63,251.42,19.3l-14.33-6.05a60.37,60.37,0,0,0-31.9,0Z" transform="translate(-31.19 -11.1)"/><text class="cls-2" transform="translate(24.12 109.26)">30%</text></svg>