<svg id="Layer_1" data-name="Layer 1" xmlns="http://www.w3.org/2000/svg" xmlns:xlink="http://www.w3.org/1999/xlink" viewBox="0 0 204 204"><defs><style>.cls-1{fill:url(#linear-gradient);}.cls-2{fill:#fff;}</style><linearGradient id="linear-gradient" x1="-12.47" y1="102.31" x2="228.09" y2="101.43" gradientTransform="matrix(1, 0, 0, -1, 0, 203.89)" gradientUnits="userSpaceOnUse"><stop offset="0" stop-color="#aa367c"/><stop offset="1" stop-color="#4a2fbd"/></linearGradient></defs><path class="cls-1" d="M187.64,69.9c5.45-2,11.59.71,13.06,6.35a102,102,0,1,1-25.91-45.7c4.08,4.15,3.29,10.83-1.26,14.46s-11.15,2.82-15.33-1.23a80.9,80.9,0,1,0,22.62,39.91C179.5,78,182.19,72,187.64,69.9Z" transform="translate(0 0)"/><path class="cls-2" d="M124.52,96a6.34,6.34,0,1,0-6.34,6.08A6.14,6.14,0,0,0,124.52,96Zm-4.25,0a2.09,2.09,0,1,1-2.09-2.13A2,2,0,0,1,120.27,96ZM138,90.27h-5.51L114.15,115h5.51Zm-10.37,19a6.34,6.34,0,1,0,6.34-6.08A6.14,6.14,0,0,0,127.65,109.24Zm4.25,0a2.09,2.09,0,1,1,2.09,2.12A2,2,0,0,1,131.9,109.24Z" transform="translate(0 0)"/><path class="cls-2" d="M66.64,107.49a10.19,10.19,0,0,0,6,2c2.77,0,4.76-1.22,4.76-3,0-2-2.06-3-6.54-3-.7,0-1-.17-1-.56a1.31,1.31,0,0,1,.31-.7l3.78-5.67H65.66c-.67,0-1-.35-1-.94v-4.1c0-.66.28-.94,1-.94H83.09c.67,0,1,.21,1,.59a1.73,1.73,0,0,1-.35.84l-5.25,7.74c3.68.84,5.78,3.22,5.78,6.75,0,5-4.34,9.07-11.38,9.07a14.72,14.72,0,0,1-9.31-3c-.39-.32-.53-.56-.53-.84a1.18,1.18,0,0,1,.25-.7l1.92-3.19c.28-.38.46-.56.74-.56A1.34,1.34,0,0,1,66.64,107.49Z" transform="translate(0 0)"/><path class="cls-2" d="M97.44,90c6.69,0,10.71,4.83,10.71,12.56,0,8-4,12.92-10.71,12.92s-10.71-4.76-10.71-12.57C86.73,94.92,90.75,90,97.44,90Zm0,6c-2.56,0-3.92,2.49-3.92,6.79s1.36,6.72,3.92,6.72,3.89-2.55,3.89-6.75S100,96,97.44,96Z" transform="translate(0 0)"/></svg>