<svg id="Layer_1" data-name="Layer 1" xmlns="http://www.w3.org/2000/svg" xmlns:xlink="http://www.w3.org/1999/xlink" viewBox="0 0 204 204"><defs><style>.cls-1{fill:url(#linear-gradient);}.cls-2{fill:#fff;}</style><linearGradient id="linear-gradient" x1="-12.47" y1="102.31" x2="228.09" y2="101.43" gradientTransform="matrix(1, 0, 0, -1, 0, 203.89)" gradientUnits="userSpaceOnUse"><stop offset="0" stop-color="#aa367c"/><stop offset="1" stop-color="#4a2fbd"/></linearGradient></defs><path class="cls-1" d="M187.64,69.9c5.45-2,11.59.71,13.06,6.35a102,102,0,1,1-25.91-45.7c4.08,4.15,3.29,10.83-1.26,14.46s-11.15,2.82-15.33-1.23a80.9,80.9,0,1,0,22.62,39.91C179.5,78,182.19,72,187.64,69.9Z" transform="translate(0 0)"/><path class="cls-2" d="M124.52,96a6.34,6.34,0,1,0-6.34,6.08A6.14,6.14,0,0,0,124.52,96Zm-4.25,0a2.09,2.09,0,1,1-2.09-2.13A2,2,0,0,1,120.27,96ZM138,90.27h-5.51L114.15,115h5.51Zm-10.37,19a6.34,6.34,0,1,0,6.34-6.08A6.14,6.14,0,0,0,127.65,109.24Zm4.25,0a2.09,2.09,0,1,1,2.09,2.12A2,2,0,0,1,131.9,109.24Z" transform="translate(0 0)"/><path class="cls-2" d="M67,108a11.26,11.26,0,0,0,5.71,1.58c2.9,0,4.55-1,4.55-2.66s-1.61-2.63-4.87-2.63a22.06,22.06,0,0,0-6,.91,4.2,4.2,0,0,1-.49.07c-.46,0-.67-.28-.63-.87L66,91.63c0-.87.35-1.15,1.19-1.15H81.69c.67,0,1,.28,1,.94v3.89c0,.7-.28.94-1,.94H72.38c-.42,0-.56.14-.59.56l-.18,2.42a16.35,16.35,0,0,1,3.47-.35c5.63,0,9,3,9,7.7,0,5-3.95,8.89-11.23,8.89A15.3,15.3,0,0,1,64.22,113c-.42-.28-.63-.53-.63-.84a2,2,0,0,1,.28-.81l1.65-3c.28-.46.45-.67.73-.67A1.68,1.68,0,0,1,67,108Z" transform="translate(0 0)"/><path class="cls-2" d="M97.44,90c6.69,0,10.71,4.83,10.71,12.56,0,8-4,12.92-10.71,12.92s-10.71-4.76-10.71-12.57C86.73,94.92,90.75,90,97.44,90Zm0,6c-2.56,0-3.92,2.49-3.92,6.79s1.36,6.72,3.92,6.72,3.89-2.55,3.89-6.75S100,96,97.44,96Z" transform="translate(0 0)"/></svg>