<svg id="Layer_1" data-name="Layer 1" xmlns="http://www.w3.org/2000/svg" xmlns:xlink="http://www.w3.org/1999/xlink" viewBox="0 0 204 204"><defs><style>.cls-1{fill:url(#linear-gradient);}.cls-2{fill:#fff;}</style><linearGradient id="linear-gradient" x1="-12.47" y1="102.31" x2="228.09" y2="101.43" gradientTransform="matrix(1, 0, 0, -1, 0, 203.89)" gradientUnits="userSpaceOnUse"><stop offset="0" stop-color="#aa367c"/><stop offset="1" stop-color="#4a2fbd"/></linearGradient></defs><path class="cls-1" d="M187.64,69.9c5.45-2,11.59.71,13.06,6.35a102,102,0,1,1-25.91-45.7c4.08,4.15,3.29,10.83-1.26,14.46s-11.15,2.82-15.33-1.23a80.9,80.9,0,1,0,22.62,39.91C179.5,78,182.19,72,187.64,69.9Z" transform="translate(0 0)"/><path class="cls-2" d="M124.52,96a6.34,6.34,0,1,0-6.34,6.08A6.14,6.14,0,0,0,124.52,96Zm-4.25,0a2.09,2.09,0,1,1-2.09-2.13A2,2,0,0,1,120.27,96ZM138,90.27h-5.51L114.15,115h5.51Zm-10.37,19a6.34,6.34,0,1,0,6.34-6.08A6.14,6.14,0,0,0,127.65,109.24Zm4.25,0a2.09,2.09,0,1,1,2.09,2.12A2,2,0,0,1,131.9,109.24Z" transform="translate(0 0)"/><path class="cls-2" d="M66,108.36a11.38,11.38,0,0,0,5.71,1.57c2.9,0,4.55-1,4.55-2.66s-1.61-2.62-4.87-2.62a21.73,21.73,0,0,0-6,.91c-.24,0-.38.07-.49.07-.45,0-.66-.28-.63-.88L65,92c0-.88.35-1.16,1.19-1.16H80.65c.67,0,.95.28.95,1v3.88c0,.7-.28.95-.95.95H71.34c-.42,0-.56.14-.59.56l-.18,2.41A17,17,0,0,1,74,99.22c5.63,0,9,3,9,7.7,0,5-4,8.89-11.24,8.89a15.16,15.16,0,0,1-8.61-2.45c-.42-.28-.63-.52-.63-.84a1.74,1.74,0,0,1,.28-.8l1.64-3c.28-.45.46-.66.74-.66A1.57,1.57,0,0,1,66,108.36Z" transform="translate(0 0)"/><path class="cls-2" d="M89.51,108.36a11.31,11.31,0,0,0,5.7,1.57c2.91,0,4.55-1,4.55-2.66s-1.61-2.62-4.86-2.62a21.62,21.62,0,0,0-6,.91c-.25,0-.39.07-.49.07-.46,0-.67-.28-.63-.88L88.53,92c0-.88.35-1.16,1.19-1.16h14.49c.66,0,.94.28.94,1v3.88c0,.7-.28.95-.94.95H94.9c-.42,0-.56.14-.6.56l-.17,2.41a16.93,16.93,0,0,1,3.46-.35c5.64,0,9,3,9,7.7,0,5-4,8.89-11.24,8.89a15.21,15.21,0,0,1-8.61-2.45c-.42-.28-.63-.52-.63-.84a1.87,1.87,0,0,1,.28-.8l1.65-3c.28-.45.45-.66.73-.66A1.56,1.56,0,0,1,89.51,108.36Z" transform="translate(0 0)"/></svg>