<svg id="Layer_1" data-name="Layer 1" xmlns="http://www.w3.org/2000/svg" xmlns:xlink="http://www.w3.org/1999/xlink" viewBox="0 0 204 204"><defs><style>.cls-1{fill:url(#linear-gradient);}.cls-2{fill:#fff;}</style><linearGradient id="linear-gradient" x1="-12.47" y1="102.31" x2="228.09" y2="101.43" gradientTransform="matrix(1, 0, 0, -1, 0, 203.89)" gradientUnits="userSpaceOnUse"><stop offset="0" stop-color="#aa367c"/><stop offset="1" stop-color="#4a2fbd"/></linearGradient></defs><path class="cls-1" d="M187.64,69.9c5.45-2,11.59.71,13.06,6.35a102,102,0,1,1-25.91-45.7c4.08,4.15,3.29,10.83-1.26,14.46s-11.15,2.82-15.33-1.23a80.9,80.9,0,1,0,22.62,39.91C179.5,78,182.19,72,187.64,69.9Z" transform="translate(0 0)"/><path class="cls-2" d="M124.52,96a6.34,6.34,0,1,0-6.34,6.08A6.14,6.14,0,0,0,124.52,96Zm-4.25,0a2.09,2.09,0,1,1-2.09-2.13A2,2,0,0,1,120.27,96ZM138,90.27h-5.51L114.15,115h5.51Zm-10.37,19a6.34,6.34,0,1,0,6.34-6.08A6.14,6.14,0,0,0,127.65,109.24Zm4.25,0a2.09,2.09,0,1,1,2.09,2.12A2,2,0,0,1,131.9,109.24Z" transform="translate(0 0)"/><path class="cls-2" d="M62.66,95.83v-4a.92.92,0,0,1,1.05-1h19c.7,0,1,.21,1,.63a1.54,1.54,0,0,1-.21.7L73.34,114.24a1.46,1.46,0,0,1-1.58,1.08H67c-.66,0-1-.17-1-.56a1.72,1.72,0,0,1,.21-.7l8.26-17.18H63.71A.92.92,0,0,1,62.66,95.83Z" transform="translate(0 0)"/><path class="cls-2" d="M85.48,99.78c0-5.56,4.52-9.45,10.57-9.45s10.19,3.57,10.19,9.17c0,3.19-.81,5.43-3.57,9.31l-4,5.53a1.71,1.71,0,0,1-1.82,1H91.33c-.53,0-.77-.14-.77-.45a1.14,1.14,0,0,1,.28-.63l4.9-6.09a5.86,5.86,0,0,1-1.44.17C89.12,108.32,85.48,105.14,85.48,99.78Zm14-.28A3.28,3.28,0,0,0,96,96.21a3.32,3.32,0,1,0,3.5,3.29Z" transform="translate(0 0)"/></svg>