<svg id="Layer_1" data-name="Layer 1" xmlns="http://www.w3.org/2000/svg" xmlns:xlink="http://www.w3.org/1999/xlink" viewBox="0 0 204 204"><defs><style>.cls-1{fill:url(#linear-gradient);}.cls-2{fill:#fff;}</style><linearGradient id="linear-gradient" x1="-12.47" y1="102.31" x2="228.09" y2="101.43" gradientTransform="matrix(1, 0, 0, -1, 0, 203.89)" gradientUnits="userSpaceOnUse"><stop offset="0" stop-color="#aa367c"/><stop offset="1" stop-color="#4a2fbd"/></linearGradient></defs><path class="cls-1" d="M187.64,69.9c5.45-2,11.59.71,13.06,6.35a102,102,0,1,1-25.91-45.7c4.08,4.15,3.29,10.83-1.26,14.46s-11.15,2.82-15.33-1.23a80.9,80.9,0,1,0,22.62,39.91C179.5,78,182.19,72,187.64,69.9Z" transform="translate(0 0)"/><path class="cls-2" d="M124.52,96a6.34,6.34,0,1,0-6.34,6.08A6.14,6.14,0,0,0,124.52,96Zm-4.25,0a2.09,2.09,0,1,1-2.09-2.13A2,2,0,0,1,120.27,96ZM138,90.27h-5.51L114.15,115h5.51Zm-10.37,19a6.34,6.34,0,1,0,6.34-6.08A6.14,6.14,0,0,0,127.65,109.24Zm4.25,0a2.09,2.09,0,1,1,2.09,2.12A2,2,0,0,1,131.9,109.24Z" transform="translate(0 0)"/><path class="cls-2" d="M62.28,99.78c0-5.56,4.51-9.45,10.57-9.45S83,93.9,83,99.5c0,3.19-.81,5.43-3.58,9.31l-3.95,5.53a1.72,1.72,0,0,1-1.82,1H68.12c-.52,0-.77-.14-.77-.45a1.21,1.21,0,0,1,.28-.63l4.9-6.09a5.71,5.71,0,0,1-1.43.17C65.92,108.32,62.28,105.14,62.28,99.78Zm14-.28a3.28,3.28,0,0,0-3.5-3.29,3.32,3.32,0,1,0,3.5,3.29Z" transform="translate(0 0)"/><path class="cls-2" d="M88.81,107.83a10.16,10.16,0,0,0,6,2c2.76,0,4.76-1.23,4.76-3,0-2-2.07-3-6.55-3-.7,0-1.05-.18-1.05-.56a1.31,1.31,0,0,1,.32-.7l3.78-5.67H87.83c-.67,0-1-.35-1-1V91.77c0-.67.28-1,1-1h17.43c.66,0,1,.21,1,.6a1.93,1.93,0,0,1-.35.84L100.64,100c3.67.84,5.77,3.22,5.77,6.76,0,5-4.34,9.06-11.37,9.06a14.66,14.66,0,0,1-9.31-3c-.39-.31-.53-.56-.53-.84a1.2,1.2,0,0,1,.25-.7l1.92-3.18c.28-.39.46-.56.74-.56A1.31,1.31,0,0,1,88.81,107.83Z" transform="translate(0 0)"/></svg>