<svg id="Layer_1" data-name="Layer 1" xmlns="http://www.w3.org/2000/svg" viewBox="0 0 2820.19 3751.29"><defs><style>.cls-1{opacity:0.2;}.cls-2{fill:#371a45;}.cls-3{fill:#fff;}.cls-4{fill:#00004f;}.cls-5{fill:#e8e8e8;}.cls-6{fill:#220f2d;}.cls-7{opacity:0.5;}.cls-8{fill:#ff2252;}.cls-9{opacity:0.6;}.cls-10{fill:#a4d95f;}.cls-11{fill:#ffc33e;}.cls-12{fill:#f70200;}</style></defs><g class="cls-1"><ellipse class="cls-2" cx="1460.53" cy="3558.07" rx="1308.63" ry="193.22"/></g><path class="cls-3" d="M1835.33,2835.59s-371.39,134.8-567.09,156.84c-55.6,6.29-99.65,4.79-134.75-2.94-88.59-19.45-121-78.65-141.34-153.9-28.39-105.13-91.39-633.12-95.42-790.07s79.95-188,164.82-203.58l572-15.75Z" transform="translate(-606.36 -120.48)"/><g class="cls-1"><path class="cls-2" d="M1792.44,2643.17l-8.7.83-163.48-817.79-572,15.72c-29.33,5.34-58.59,12.61-84.06,26.34,72.25-37.53,163.77-4.23,197.31,72.37,43,98.23,53.93,258.39,65.42,430.73,8,120,23.39,236.66,28.52,335.78-10.36,252.45-238.65,198.78-281.77,59.9,5.22,29.94,10,53.55,14,68.58,20.23,74.69,52.34,133.54,139.49,153.41-2.31.17-4.62.34-7,.42,22.21,4.91,48,7.3,78.07,6.81a572.15,572.15,0,0,0,65.54-3.83c195.7-22.05,567.09-156.81,567.09-156.81Z" transform="translate(-606.36 -120.48)"/></g><path class="cls-2" d="M1203.77,3018.2c-27.74,0-52.56-2.47-75-7.41-104.73-23-138.49-98.58-157.7-169.49-28.16-104.28-92-631.94-96.17-795.22-4.33-168,85.25-207.71,182.69-225.6l3.34-.35,590.38-16.26L1860.4,2849.71l-17.63,6.39c-15.26,5.54-376.07,135.93-572.09,158A597,597,0,0,1,1203.77,3018.2ZM1063.84,1863.71C985,1878.35,914.91,1903.85,918.54,2045c4,157,67.75,685.23,94.68,784.94,19.15,70.74,47.74,121.33,125,138.28,33.86,7.46,76.79,8.32,127.62,2.57,166.82-18.79,468.57-122.61,544.45-149.38L1615.76,1848.5Z" transform="translate(-606.36 -120.48)"/><path class="cls-2" d="M1131,3017.05l-3.4-.74c-107.69-23.64-142.3-101-161.95-173.54-28.22-104.5-92.16-633-96.37-796.54-2.38-92.62,23.76-155.78,79.92-193.11,41.09-27.31,92.19-34.89,140.21-20.77A173.87,173.87,0,0,1,1200,1929.62c45.16,103.16,56.1,266.74,67.68,439.92,3.77,56.3,9.17,111.87,14.38,165.62,18.41,189.66,34.31,353.46-35.3,433-26.83,30.65-64.59,47.06-112.25,48.77Zm-89.66-1136.74a111.29,111.29,0,0,0-61.75,18.55c-25,16.6-57.89,49.79-55.42,146,4,156.82,67.62,684.12,94.49,783.62,18.85,69.62,45.2,116.39,117.29,133.46,30.63-1.73,53.37-11.53,69.46-29.91,54-61.68,38.43-221.89,22-391.52-5.26-54.15-10.7-110.14-14.52-167.25-11.25-168.27-21.88-327.2-63.19-421.57a119.09,119.09,0,0,0-75.74-66.61A115.58,115.58,0,0,0,1041.34,1880.31Z" transform="translate(-606.36 -120.48)"/><path class="cls-3" d="M3066.08,2973.63c-32,247.64-375.43,327.47-527.21,247.64-120.77-63.62-367.41-375.43-367.41-375.43-119.85,63.86-270,63.86-270,63.86l4.85,610.52c6.34,51.94-20.87,102.51-68,125.18-142.33,68.53-303.79,82-406.92,72.57-203.65-18.58-251.93-296.59-64.24-377.79,18.2-7.89,30.44-10.07,30.44-10.07s-31.6-424.19-119.29-883.68c-71.92-376.83,38.51-790.75,38.51-790.75l998.44-133.38s57.3,384.54,143.77,664.54c80.18,259.6,271.6,539.16,271.6,539.16,96.67-14.85,332-2.05,338,199.86A306.34,306.34,0,0,1,3066.08,2973.63Z" transform="translate(-606.36 -120.48)"/><path class="cls-2" d="M1492.72,3742.45c-22.73,0-44-1-63.35-2.75-118.5-10.81-185.24-101.22-198.81-186-16.2-101.24,34-192.91,127.9-233.53,5.89-2.55,11.25-4.58,15.91-6.18-7.08-85.1-41.11-463-117.54-863.45-72-377.36,37.76-796.27,38.87-800.46l3.76-14.08,1034.17-138.15,3.17,21.25c.57,3.83,58.06,386.17,143,661.32,69.38,224.63,225.52,468,261.35,522.19,70.91-8,195.8-2.33,276,64.46,46.6,38.81,71.24,92,73.21,158.15a329.64,329.64,0,0,1-2.71,51.2v0c-13.14,101.75-77.73,187.57-181.87,241.66-122.41,63.59-281,73-377.13,22.49-110-57.93-313-304.9-363.22-367.27-93.2,44.73-197.44,55.1-242,57.49l4.68,588.06a144,144,0,0,1-80.38,146.21C1728.71,3722.37,1595.73,3742.44,1492.72,3742.45ZM1334.37,1675.34c-18,75.14-97.46,438-34.67,767,86.92,455.45,119.3,881.9,119.62,886.15l1.46,19.66-19.4,3.44s-10.34,2-25.59,8.61c-91.12,39.42-112,125.15-102.14,186.59,10.1,63.14,58,140.17,159.69,149.45,101.17,9.26,258.18-4.4,395.48-70.5a100.38,100.38,0,0,0,55.83-102.88l-.15-2.47-5-632.48,22,0c1.45,0,146.34-.86,259.75-61.31l16.08-8.56,11.3,14.28c2.44,3.09,245.15,308.92,360.47,369.66,83,43.68,227.79,34,336.68-22.59,64.44-33.47,144.27-96.8,158.71-208.51a285.24,285.24,0,0,0,2.38-44.37c-1.58-53.08-20.93-95.44-57.51-125.9-74-61.61-199.43-61.64-255.39-53l-13.56,2.09-7.76-11.33c-7.89-11.52-194.21-285.27-274.44-545-74.36-240.78-127.77-561.75-141.21-646.53Zm1731.7,1298.29h0Z" transform="translate(-606.36 -120.48)"/><path class="cls-2" d="M1379.4,3159.48a21.82,21.82,0,0,1-12.38-39.8c2.66-1.83,66.47-45.13,165.52-68.93,91.65-22,231.92-30.7,379.68,53.12a21.82,21.82,0,0,1-21.53,38c-108.18-61.37-224.71-77.86-346.35-49-91.66,21.73-152,62.48-152.65,62.89A21.72,21.72,0,0,1,1379.4,3159.48Z" transform="translate(-606.36 -120.48)"/><path class="cls-2" d="M1394.11,3302.88c14-1,26.5-1.27,39.61-1.51,13-.23,25.86-.18,38.74,0,25.76.37,51.41,1.44,77,3,25.57,1.69,51.08,3.65,76.5,6.36,25.42,2.56,50.75,5.81,76,9.27a12.29,12.29,0,0,1-2,24.47h-.19c-25.18-.92-50.33-1.62-75.47-1.63s-50.23.43-75.27,1.27c-25,1-50,2.49-74.85,4.62-12.42,1.07-24.81,2.26-37.1,3.71s-24.86,3.06-36,5l-.31,0a27.5,27.5,0,0,1-9.32-54.2C1392.27,3303.06,1393.21,3302.94,1394.11,3302.88Z" transform="translate(-606.36 -120.48)"/><path class="cls-2" d="M2736.25,2747.07c-9.58,2.22-20.54,5.4-30.79,8.72-10.41,3.34-20.72,7.11-31,11a550.86,550.86,0,0,0-59.94,27.72,453.09,453.09,0,0,0-56,35.2l-13.24,10-12.62,10.72-6.32,5.38-5.93,5.77-11.92,11.57-.47.47a9.17,9.17,0,0,1-13.36-12.53L2506,2847.8l5.69-6.66,6.09-6.26,12.25-12.52,12.94-11.78a482.46,482.46,0,0,1,55.57-42.61,585.5,585.5,0,0,1,60.68-35.22c10.51-5.18,21.11-10.21,32-14.84s21.49-8.91,33.71-13a21.85,21.85,0,1,1,13.8,41.47c-.64.21-1.29.39-1.94.54Z" transform="translate(-606.36 -120.48)"/><path class="cls-2" d="M2679.63,3273c-56.64,0-109.56-10.64-150.92-32.39l-2.17-1.31c-21.79-14.93-32.82-44.54-31.06-83.36,3.8-83.56,64.8-199.83,192.5-271.22,143.35-80.14,283.27-72.73,352.61-31.94,29.95,17.62,47.34,41.29,49.55,67.17l.27.52,0,5a330.06,330.06,0,0,1-2.72,50.94v0c-13.14,101.75-77.73,187.57-181.87,241.66C2836.1,3254.32,2754.61,3273,2679.63,3273Zm-129.21-70.29c83.26,42.86,227,32.93,335.3-23.31,64.44-33.47,144.28-96.82,158.71-208.53a292.16,292.16,0,0,0,2.48-39.5l-.14-.25,0-5.42c0-11.87-10.28-24.72-28.27-35.31-59-34.68-180.86-39.33-309.2,32.42-112.45,62.86-167.05,165.94-170.19,235.11C2537.92,3183.33,2544.29,3197.71,2550.42,3202.68Zm515.65-229h0Z" transform="translate(-606.36 -120.48)"/><path class="cls-2" d="M2936.86,3196a21.83,21.83,0,0,1-6.76-1.07l-385.7-125.58a21.82,21.82,0,0,1,13.51-41.49l385.7,125.57a21.82,21.82,0,0,1-6.75,42.57Z" transform="translate(-606.36 -120.48)"/><path class="cls-2" d="M3057,3038.21a21.72,21.72,0,0,1-5.71-.76L2674.87,2935.5a21.82,21.82,0,0,1,11.41-42.12l376.45,101.95a21.82,21.82,0,0,1-5.69,42.88Z" transform="translate(-606.36 -120.48)"/><path class="cls-2" d="M1738.14,2874.17A784.33,784.33,0,0,0,1817,2882c26.45,1.48,52.89,1.53,79.17.6a756.36,756.36,0,0,0,154.88-22.2,730.42,730.42,0,0,0,74-23.77,677.06,677.06,0,0,0,70.65-32.45c45.77-24.65,88.48-55.07,129.47-89.11l.19-.15a15.83,15.83,0,0,1,22.44,22.1,500.75,500.75,0,0,1-126.57,111.35l-18.34,10.88c-6.09,3.69-12.59,6.61-18.88,9.93-12.55,6.73-25.68,12.22-38.65,18.11a604,604,0,0,1-332.93,32.46c-13.75-2.64-27.43-5.58-40.94-9.27a366.68,366.68,0,0,1-40.34-13.09,12.14,12.14,0,0,1,6.28-23.29Z" transform="translate(-606.36 -120.48)"/><path class="cls-3" d="M1629.71,2503l-477.65,26.57a64,64,0,0,1-67.47-60.35h0a64,64,0,0,1,60.35-67.46l477.65-26.58a64,64,0,0,1,67.47,60.35h0A64,64,0,0,1,1629.71,2503Z" transform="translate(-606.36 -120.48)"/><g class="cls-1"><path class="cls-4" d="M1692.88,2446a64.07,64.07,0,0,1-60.51,63.92l-477.63,26.59a64,64,0,0,1-67.47-60.32c-.06-1.24-.12-2.42-.12-3.67a63.63,63.63,0,0,1,8.57-32,63.81,63.81,0,0,0,59,32.06l477.63-26.53a64.13,64.13,0,0,0,51.94-31.94,63.37,63.37,0,0,1,8.44,28.33C1692.82,2443.66,1692.88,2444.85,1692.88,2446Z" transform="translate(-606.36 -120.48)"/></g><path class="cls-2" d="M1148.39,2551.44a85.82,85.82,0,0,1-4.66-171.51l477.65-26.58a85.82,85.82,0,0,1,9.54,171.38l-477.65,26.58C1151.64,2551.4,1150,2551.44,1148.39,2551.44Zm477.79-154.59c-.79,0-1.58,0-2.37.07l-477.66,26.58a42.19,42.19,0,0,0,4.69,84.24l477.66-26.58a42.19,42.19,0,0,0-2.32-84.31Zm3.53,106.1h0Z" transform="translate(-606.36 -120.48)"/><path class="cls-3" d="M2262.5,2621.34l-476.72,15.86A138.9,138.9,0,0,1,1642.34,2503l-5.27-158.37a138.89,138.89,0,0,1,134.2-143.44L2248,2185.33a138.9,138.9,0,0,1,143.44,134.2l5.27,158.37A138.9,138.9,0,0,1,2262.5,2621.34Z" transform="translate(-606.36 -120.48)"/><g class="cls-1"><path class="cls-2" d="M2409.67,2505.4a125.8,125.8,0,0,1-119.15,100.76l-502.85,16.72a125.79,125.79,0,0,1-129.91-121.52l-6.15-184.58a125.79,125.79,0,0,1,72.38-118.1,125.17,125.17,0,0,0-2.43,29.14l6.15,184.51a125.76,125.76,0,0,0,130,121.52l502.85-16.71A124.76,124.76,0,0,0,2409.67,2505.4Z" transform="translate(-606.36 -120.48)"/></g><path class="cls-2" d="M1781.09,2664.74c-89.19,0-163.2-71-166.19-160.82l-5.27-158.37c-3.05-91.67,69-168.74,160.73-171.79l476.72-15.87c91.78-3,168.74,69.06,171.79,160.73l5.27,158.37c3.05,91.67-69,168.74-160.73,171.79l-476.72,15.86C1784.82,2664.71,1783,2664.74,1781.09,2664.74Zm471.62-452c-1.27,0-2.53,0-3.8.06l-476.73,15.87a111.45,111.45,0,0,0-107.67,115.08l5.27,158.37a111.45,111.45,0,0,0,115.09,107.67l476.72-15.86a111.45,111.45,0,0,0,107.67-115.09L2364,2320.45a111.47,111.47,0,0,0-111.28-107.74Z" transform="translate(-606.36 -120.48)"/><path class="cls-3" d="M2407,965.57a873,873,0,0,1-77.2,438,897.52,897.52,0,0,1-44.43,84.42c-8,13.46-16.46,26.81-25.26,40.11a899.25,899.25,0,0,1-290.81,274.68q-22.2,13-45,24.74c-277.82,142.87-621.81,137.83-899.56-42.81-409.2-266-519.5-812.27-246.51-1220a896.69,896.69,0,0,1,186-202.4c8.16-6.63,16.56-13.06,25.07-19.3q34-25.28,69.91-47.06a910.14,910.14,0,0,1,360.87-124.54q30.19-3.69,60.67-5.33a892.77,892.77,0,0,1,532.76,142C2249,461.1,2385.4,706.82,2407,965.57Z" transform="translate(-606.36 -120.48)"/><path class="cls-2" d="M1510.18,1930c-170.6,0-340.09-48.16-486.61-143.45C826,1658.08,691.18,1460.68,644,1230.73c-47.51-231.8-.5-468.77,132.39-667.26A898.58,898.58,0,0,1,962.92,360.58c7.72-6.28,16.19-12.8,25.14-19.36,22.59-16.8,46.17-32.67,70.08-47.17a912.63,912.63,0,0,1,361.73-124.84c20.43-2.49,40.89-4.29,60.83-5.34a894.63,894.63,0,0,1,534.07,142.37c228.08,148.26,371.83,388.51,394.4,659.15a878.25,878.25,0,0,1-77.39,439.09,902.5,902.5,0,0,1-44.55,84.64c-7.4,12.5-15.69,25.65-25.31,40.19a901.35,901.35,0,0,1-291.53,275.36c-14.71,8.61-29.87,16.95-45.05,24.8A907.72,907.72,0,0,1,1510.18,1930ZM1529,167c-15.9,0-32,.42-48.1,1.27-19.84,1.05-40.2,2.83-60.53,5.31a908.12,908.12,0,0,0-360,124.24c-23.78,14.42-47.25,30.22-69.74,46.94-8.91,6.54-17.31,13-25,19.25A894.36,894.36,0,0,0,780.08,565.91c-132.23,197.51-179,433.3-131.73,663.94,46.9,228.79,181,425.19,377.62,553,267,173.68,610.87,190,897.36,42.71,15.11-7.81,30.2-16.12,44.84-24.68a899.23,899.23,0,0,0,290.09-274c9.58-14.47,17.83-27.56,25.2-40a899.52,899.52,0,0,0,44.33-84.22,873.9,873.9,0,0,0,77-436.9c-22.45-269.27-165.48-508.31-392.41-655.83a884.82,884.82,0,0,0-440.05-141.86C1558.1,167.34,1543.64,167,1529,167Z" transform="translate(-606.36 -120.48)"/><path class="cls-5" d="M1024.76,1784.68c277.74,180.7,621.78,185.73,899.58,42.82q22.76-11.73,44.92-24.72a901.6,901.6,0,0,0,290.85-274.68c8.75-13.31,17.25-26.63,25.27-40.08a908.61,908.61,0,0,0,44.39-84.46,873.47,873.47,0,0,0,24.08-673.72,872.51,872.51,0,0,1-78.65,417.72,888.34,888.34,0,0,1-44.39,84.46c-8,13.44-16.47,26.76-25.27,40.09a898.09,898.09,0,0,1-290.8,274.66q-22.23,13-45,24.73C1592,1714.41,1248,1709.37,970.19,1528.69,808.11,1423.33,693,1274,630,1106.76,645.84,1373,783.23,1627.68,1024.76,1784.68Z" transform="translate(-606.36 -120.48)"/><path class="cls-2" d="M1510.17,1944.71c-173.39,0-345.69-49-494.62-145.83-200.93-130.63-338-331.35-385.92-565.2C581.31,998,629.11,757.07,764.2,555.28A913.45,913.45,0,0,1,953.75,349.07c7.8-6.34,16.46-13,25.61-19.72,22.88-17,46.85-33.15,71.15-47.88A927.22,927.22,0,0,1,1418.1,154.6c20.75-2.53,41.55-4.35,61.82-5.43A909.44,909.44,0,0,1,2022.8,293.9c231.91,150.76,378.09,395.06,401,670.26h0a892.91,892.91,0,0,1-78.68,446.47,920,920,0,0,1-45.28,86c-7.51,12.68-15.92,26-25.68,40.77a916.16,916.16,0,0,1-296.32,279.92c-15,8.76-30.36,17.23-45.77,25.2A922.56,922.56,0,0,1,1510.17,1944.71ZM1529,181.7c-15.64,0-31.45.42-47.32,1.25-19.5,1-39.52,2.79-59.52,5.22A893.41,893.41,0,0,0,1068,310.4c-23.39,14.18-46.47,29.71-68.59,46.16-8.79,6.45-17,12.77-24.5,18.86A879.84,879.84,0,0,0,792.31,574.11c-130,194.2-176,426-129.55,652.78,46.11,224.91,178,418,371.23,543.64,262.6,170.8,600.8,186.87,882.61,42,14.85-7.68,29.71-15.86,44.14-24.3A884.31,884.31,0,0,0,2246,1518.68c9.4-14.19,17.52-27.08,24.77-39.31a885.45,885.45,0,0,0,43.62-82.88A859,859,0,0,0,2390.12,967h0c-22.07-264.7-162.67-499.69-385.76-644.71a869.93,869.93,0,0,0-432.73-139.5C1557.63,182.05,1543.39,181.7,1529,181.7Z" transform="translate(-606.36 -120.48)"/><path class="cls-2" d="M1510.17,1949.61c-174.34,0-347.55-49.22-497.3-146.61-202-131.36-339.85-333.19-388-568.33-48.58-237-.52-479.23,135.31-682.12A918.52,918.52,0,0,1,950.69,345.23c7.83-6.36,16.55-13.08,25.77-19.84,23-17.08,47.07-33.3,71.5-48.11a932.22,932.22,0,0,1,369.55-127.56c20.86-2.53,41.77-4.37,62.15-5.45a922,922,0,0,1,93.87-.2,908.76,908.76,0,0,1,451.94,145.72c233.2,151.59,380.18,397.24,403.25,674h0a897.87,897.87,0,0,1-79.11,448.93,925,925,0,0,1-45.52,86.48c-7.55,12.74-16,26.16-25.81,41a921.34,921.34,0,0,1-297.92,281.44c-15.07,8.81-30.52,17.32-46,25.32A927.58,927.58,0,0,1,1510.17,1949.61Zm18.85-1763c-15.56,0-31.28.41-47.06,1.24-19.39,1-39.3,2.77-59.19,5.19a888.75,888.75,0,0,0-352.19,121.55c-23.25,14.1-46.2,29.55-68.2,45.91-8.75,6.42-16.91,12.69-24.34,18.73A875,875,0,0,0,796.38,576.84c-129.28,193.1-175,423.61-128.81,649.07,45.84,223.61,176.92,415.56,369.09,540.5,261.14,169.85,597.45,185.83,877.7,41.71,14.76-7.64,29.55-15.77,43.9-24.17A879.37,879.37,0,0,0,2242,1516c9.34-14.11,17.41-26.93,24.62-39.09a882,882,0,0,0,43.39-82.43,854,854,0,0,0,75.26-427.06h0c-21.94-263.18-161.74-496.82-383.55-641a865,865,0,0,0-430.29-138.71C1557.47,187,1543.31,186.61,1529,186.61Z" transform="translate(-606.36 -120.48)"/><path class="cls-2" d="M2396.41,1191.33c-237.46,587-973.92,763.37-1349.48,266C791.41,1118.94,931.5,606.62,1278.14,381.15c252.29-164.1,570-215.81,930.3,99.49,0,0,137.47,164.19,167,314.22S2408.05,1096,2408.05,1096Z" transform="translate(-606.36 -120.48)"/><path class="cls-6" d="M1047,1457.32c375.55,497.37,1112,321,1349.48-266l2.34-19.33c-424.66,400-1091.66,431.74-1480.91-64C926.9,1231.92,968.12,1352.88,1047,1457.32Z" transform="translate(-606.36 -120.48)"/><path class="cls-2" d="M1611,1861.42a822.36,822.36,0,0,1-105.65-6.76c-219.89-28.47-410.45-141.93-551.08-328.12C825.09,1355.5,776,1135.47,816.11,907c44.52-253.78,195.37-486.13,403.52-621.52C1335.3,210.22,1452.85,162.74,1569,144.32l2.22-.35,2.24.1a908.79,908.79,0,0,1,452,145.72c233.2,151.59,380.18,397.24,403.25,674h0a897.87,897.87,0,0,1-79.11,448.93,925,925,0,0,1-45.52,86.48c-7.55,12.74-16,26.16-25.81,41a923.29,923.29,0,0,1-90.07,114l-2.51,2.31C2016.8,1789.28,1812.16,1861.42,1611,1861.42ZM1573.64,187.77c-109.37,17.71-220.46,62.87-330.22,134.26-198.19,128.91-341.86,350.4-384.33,592.48-38,216.44,8.19,424.46,130,585.73,133.4,176.63,313.86,284.22,521.86,311.14,221.66,28.7,457.2-39.9,646.45-188.2A877.81,877.81,0,0,0,2242,1516c9.34-14.11,17.41-26.93,24.62-39.09a882,882,0,0,0,43.39-82.43,854,854,0,0,0,75.26-427.06h0c-21.94-263.19-161.74-496.82-383.55-641A865.09,865.09,0,0,0,1573.64,187.77Z" transform="translate(-606.36 -120.48)"/><path class="cls-2" d="M1615.56,1766.49c-229.52,0-438.24-105.31-583.62-297.84-114.8-152-158.4-347.63-122.77-550.73,39.58-225.61,173.69-432.16,358.73-552.52,318.74-207.31,639.34-173.29,952.92,101.11l2,2.08c5.74,6.85,140.91,169.64,171,322.64,29.51,149.9,32.93,302.85,33,304.38l0,1.33-12.11,99.13-.93,2.3c-123.73,305.88-390.86,521-697.14,561.41A773.48,773.48,0,0,1,1615.56,1766.49Zm63.16-1496.27q-195.2,0-390.34,126.67C1111.92,511.68,984,708.88,946.17,924.41c-33.81,192.73,7.29,378,115.75,521.6,158.09,209.36,394.95,310.16,649.85,276.52,292.12-38.54,547.22-243.82,666.3-535.95l11.17-91.5c-.4-15-4.81-157.27-32.23-296.6-27-137.26-150.32-290.35-162.08-304.7C2024.29,344.8,1851.69,270.22,1678.72,270.22Zm717.69,921.11h0Z" transform="translate(-606.36 -120.48)"/><path class="cls-3" d="M694.82,1642.25c86.91,150.23,249.92,224.47,364.1,165.77s136.29-228.07,49.38-378.3c-.53-1-1.14-1.93-1.72-2.86-87.29-148.32-249-221.2-362.39-162.91-88.22,45.34-121.46,156.74-92,274.32A405.88,405.88,0,0,0,694.82,1642.25Z" transform="translate(-606.36 -120.48)"/><path class="cls-5" d="M694.82,1642.25c86.91,150.23,249.92,224.47,364.1,165.77s136.29-228.07,49.38-378.3c-.53-1-1.14-1.93-1.72-2.86-3.63,21.87-14.39,47.09-43.82,55.58-51.56,14.85-190.65-39-190.65-39s-95.63,40.49-219.9,94.81A405.88,405.88,0,0,0,694.82,1642.25Z" transform="translate(-606.36 -120.48)"/><path class="cls-2" d="M973.76,1849.68c-107.81,0-227.23-74.42-297.85-196.49h0c-53.41-92.31-69.71-194-44.74-279,17.35-59,53-103.85,103-129.58,124.18-63.84,300.47,14.32,393,174.22,53.41,92.32,69.71,194,44.73,279.06-17.34,59-53,103.85-103,129.57C1039.5,1842.52,1007.18,1849.68,973.76,1849.68ZM713.68,1631.34c81.05,140.08,231.44,210.64,335.26,157.26,39.16-20.13,67.2-55.77,81.1-103.07,21.3-72.53,6.11-164.08-40.64-244.9C1008.35,1300.55,858,1230,754.14,1283.37c-39.16,20.13-67.2,55.77-81.1,103.07-21.31,72.53-6.12,164.08,40.64,244.9Z" transform="translate(-606.36 -120.48)"/><ellipse class="cls-3" cx="849.84" cy="1595.88" rx="188.86" ry="249.84" transform="translate(-1375.83 671.1) rotate(-35.55)"/><path class="cls-2" d="M904.33,1829.22c-54.33,0-111.9-24-161.3-67.92-101.92-90.61-137.12-238.5-78.48-329.67,24.39-37.91,61.26-61.24,106.64-67.46,61-8.36,128.66,15.8,185.46,66.3,101.92,90.6,137.12,238.49,78.48,329.66-24.39,37.91-61.26,61.24-106.64,67.46A177.84,177.84,0,0,1,904.33,1829.22Zm-109-462.12a173.81,173.81,0,0,0-23.55,1.59c-44,6-79.78,28.65-103.42,65.41-57.48,89.36-22.64,234.61,77.67,323.79,55.8,49.61,122.08,73.38,181.81,65.18,44-6,79.78-28.65,103.42-65.4,57.48-89.37,22.64-234.62-77.67-323.79C905.06,1390.7,848.57,1367.1,795.36,1367.1Z" transform="translate(-606.36 -120.48)"/><path class="cls-5" d="M1057.64,1598.63c-12.83-45.54-38.37-87.63-71.28-122,20.39,106.37-40.64,189.54-143.4,189.64-66.4.1-135-34.58-185.86-87.83,1.24,6.72,2.91,13.58,4.84,20.49,32.73,115.94,147.83,209.88,257.11,209.79S1090.33,1714.52,1057.64,1598.63Z" transform="translate(-606.36 -120.48)"/><path class="cls-2" d="M915.65,1847.3c-86.49,0-185.53-63.75-245.53-166.51-45.62-78.14-60.74-165.73-40.46-234.28,13.12-44.35,39.77-77.72,77.06-96.53,96.53-48.68,237.68,18.93,314.62,150.71,45.62,78.14,60.74,165.72,40.46,234.27-13.12,44.35-39.77,77.73-77.06,96.54C963.49,1842.21,940.07,1847.3,915.65,1847.3Zm-138.09-470c-18.2,0-35.52,3.75-51.19,11.66-26.28,13.24-45.25,37.43-54.87,69.94-16.93,57.23-3.36,131.95,36.31,199.9h0C773.34,1771,888.75,1831,965.09,1792.53c26.28-13.24,45.25-37.43,54.87-69.94,16.93-57.23,3.36-132-36.31-199.9C931.58,1433.5,848,1377.29,777.56,1377.29Z" transform="translate(-606.36 -120.48)"/><g class="cls-7"><path class="cls-3" d="M1212.46,634.44S1557,440,1862.2,508.86l1,.21a368.45,368.45,0,0,1,170.77,90.87c63,59.2,97.57,109.22,126.27,154.44,87.21,137.55,101.91,218.42,101.91,218.42,33.48-122.59,26-233.22-45.48-348.52q-10.62-17-23.11-34.28c-1.91-2.65-3.85-5.24-5.86-7.82,0-.06,0-.1-.14-.13a901.14,901.14,0,0,0-75.26-79.48c-94.54-88.42-243-188-418.35-167.39C1366,373.69,1191.83,627.31,1212.46,634.44Z" transform="translate(-606.36 -120.48)"/></g><g class="cls-7"><ellipse class="cls-3" cx="1150.23" cy="1133.36" rx="119.3" ry="137.04" transform="translate(-883.44 257.69) rotate(-16.69)"/></g><g class="cls-7"><ellipse class="cls-3" cx="1223.77" cy="1371.22" rx="49.24" ry="56.61" transform="translate(-852.51 147.48) rotate(-11.36)"/></g><path class="cls-8" d="M2197.23,2647.3C2060.5,2555,1993.45,2246,2159.66,1725.63c142.43-445.9,672.17-586.59,884-281.83,0,0,222.66,73.25,320.3,274,70.95,145.84,74.89,425.7-272,701.61C2768.42,2676.74,2356.89,2755.15,2197.23,2647.3Z" transform="translate(-606.36 -120.48)"/><g class="cls-9"><path class="cls-3" d="M3393.65,1806.55c-.67-1.53-1.34-3-2.08-4.48-97.67-200.68-320.31-274-320.31-274C2953,1358,2735.69,1326.7,2542,1409.78a25.94,25.94,0,0,1,4.78,6c14.72,25.45-18.39,72-73.88,104.11-49.6,28.64-100.37,36-121,19h-.06c-71.24,70.57-129.55,161.63-164.5,271.13-102.95,322.21-116.44,563.36-79.28,722.23-66.59-151.26-71.56-420.8,51.68-806.59,142.38-445.89,672.14-586.6,884-281.81,0,0,222.63,73.21,320.31,274A371.38,371.38,0,0,1,3393.65,1806.55Z" transform="translate(-606.36 -120.48)"/></g><path class="cls-2" d="M2392.6,2718.54c-86.43,0-158.68-17.23-208.93-51.17h0c-79.29-53.56-130.06-166.61-143-318.34-14.52-170.8,18.63-388.92,95.88-630.77s276.91-420.6,508.67-455.42c171-25.67,321.3,32.83,413.71,160.68,41.74,15.36,235.05,95.11,326.77,283.63,26.16,53.79,63.85,166.76,22.28,319-40,146.45-141.26,285.12-301,412.16-154,122.52-338.13,213.28-518.39,255.55C2518.32,2710.37,2452.1,2718.53,2392.6,2718.54ZM2722.34,1305.4a471.08,471.08,0,0,0-69.88,5.34c-213.67,32.1-398.05,197.85-469.73,422.26-75.32,235.83-107.74,447.43-93.76,611.93,11.64,136.85,54.9,237.1,121.81,282.3h0c42.24,28.53,105.09,42.79,180.62,42.8,189.69,0,459.58-89.9,685.51-269.62,151.47-120.49,247.15-250.7,284.38-387,37.4-137,4.08-237.38-19.11-285.06-91.81-188.73-304-260.83-306.11-261.54a24.3,24.3,0,0,1-12.3-9.17C2955.17,1358.92,2847.67,1305.4,2722.34,1305.4Z" transform="translate(-606.36 -120.48)"/><path class="cls-10" d="M3296.65,1802.44c-2.88,9.69-5,15.15-5,15.15-42.62-107.49-119.63-138.27-152.55-146.73a111.34,111.34,0,0,0-15.64-3.06c31,180.08-66,251.94-87.74,265.61-2.7,1.66-4.23,2.45-4.23,2.45,30.53-111.34-31.33-224.47-53.16-259.54-4.48-7.18-7.24-11.1-7.24-11.1-51.75,170.09-258.5,136.61-283.88,131.89l-2.58-.55c123.49-47.28,136.67-234.1,136.67-234.1a140.59,140.59,0,0,0-8.89-14.6c-60.09-86.82-209.27-99.08-209.27-99.08,3.38-3.31,6.81-6.38,10.18-9.32,98.41-85.53,194.8-34.4,194.8-34.4-2.58-99.88-68.3-199.7-68.3-199.7q14.25,2,27.77,4.9c217.3,45.56,287.57,238.52,287.57,238.52C3373.79,1477.78,3316.52,1736.71,3296.65,1802.44Z" transform="translate(-606.36 -120.48)"/><path class="cls-2" d="M3031.55,1960.07a24.22,24.22,0,0,1-23.36-30.63c22.09-80.47-9.59-163.52-33.78-210.82-66.1,115-216.7,118.51-294.84,101.63A24.22,24.22,0,0,1,2676,1774c95-36.38,116.62-173.76,120.44-206.28-49.34-81.54-193.76-94.63-195.25-94.75a24.23,24.23,0,0,1-14.83-41.55c68.73-66.46,143.79-72.09,193.93-61.41-13.68-78.87-60.15-150.52-60.69-151.35a24.23,24.23,0,0,1,20.25-37.51c235.37,0,287.45,198.88,298.55,270.14,108.52-6.73,188.46,19.82,237.88,79.12,91,109.2,40.84,286.5,38.66,294a24.22,24.22,0,0,1-45.77,2.15c-31.85-80.37-83.78-113-116.94-126.1,17.06,188.93-104.08,254.1-109.56,256.94A24.15,24.15,0,0,1,3031.55,1960.07ZM2971.11,1641a24.23,24.23,0,0,1,19.73,10.18c3.56,5,74,105.61,73.28,222.62,26.92-36.17,53.16-99.53,35.53-201.84a24.22,24.22,0,0,1,26.11-28.23c4.35.41,91,9.64,154.35,100.7,5.33-54.43,2.63-130.75-41.13-183.14-42-50.32-115.85-70.47-219.42-59.86a24.22,24.22,0,0,1-26.66-23h0c-.45-9.51-12.73-219.19-209.88-246,20.53,40.3,47.63,105.57,49.37,172a24.21,24.21,0,0,1-35.56,22c-2.92-1.5-63.67-31.75-134.56,7.91,57.55,13.62,142.91,45.31,180.49,116.88a24.1,24.1,0,0,1,2.72,13c-.47,6.77-10.79,138.73-89.6,214.84,65.76-.11,161-19,192-120.88a24.22,24.22,0,0,1,19.28-16.85A24.52,24.52,0,0,1,2971.11,1641Z" transform="translate(-606.36 -120.48)"/><path class="cls-10" d="M3333.75,1113.39S3270,1546.64,2905.4,1562.46c0,0,23.86-20.48,54.21-74.07,41.88-73.76,96.14-210.37,117.78-442.88.55-5.33,1-10.79,1.47-16.25a190.78,190.78,0,0,1,8.53-41.14,160.88,160.88,0,0,1,12-28.51.19.19,0,0,0,.06-.12c19.44-35.81,57-68.12,129.26-48.13a158.56,158.56,0,0,1,43.53,18.94c48.81,30.84,62.66,82.35,65.24,122.88v.06A238.28,238.28,0,0,1,3333.75,1113.39Z" transform="translate(-606.36 -120.48)"/><g class="cls-9"><path class="cls-3" d="M3311.8,969.3a173.67,173.67,0,0,0-20.91-9c-70.57-25.2-110.43,4.24-132.44,38.57a.19.19,0,0,1-.06.12,162,162,0,0,0-14,27.53,191.42,191.42,0,0,0-11.53,40.41c-.86,5.46-1.71,10.85-2.63,16.13-38.51,230.29-102.64,362.61-149.73,433.12a422.88,422.88,0,0,1-31.83,42.25c-13.92,2-28.39,3.37-43.29,4,0,0,23.86-20.48,54.21-74.07,41.88-73.76,96.14-210.37,117.78-442.88.55-5.33,1-10.79,1.47-16.25a190.78,190.78,0,0,1,8.53-41.14,160.88,160.88,0,0,1,12-28.51.19.19,0,0,0,.06-.12c19.44-35.81,57-68.12,129.26-48.13a158.56,158.56,0,0,1,43.53,18.94A128.67,128.67,0,0,1,3311.8,969.3Z" transform="translate(-606.36 -120.48)"/></g><g class="cls-1"><path class="cls-2" d="M3333.75,1113.39S3270,1546.64,2905.4,1562.46c0,0-8.11,28.42,22.24-25.17,86.39-16,208.29-148.34,254.57-267,23-58.9,6.72-142.9-63.3-178.72-16-8.18-28.19-26.47-41.52-46.09.55-5.33,1-10.79,1.47-16.25a190.78,190.78,0,0,1,8.53-41.14c30.1,27.41,62.38,88.61,129.63,75.26,89.36-17.74,78.84-71.93,55.17-133.08,48.81,30.84,62.66,82.35,65.24,122.88v.06A238.28,238.28,0,0,1,3333.75,1113.39Z" transform="translate(-606.36 -120.48)"/></g><path class="cls-2" d="M2905.41,1586.7a24.22,24.22,0,0,1-15.89-42.49c2-1.81,131.63-121.58,165.19-517,.19-3,6.18-84.75,62.64-124.87,31.53-22.4,71.14-27.22,117.73-14.35,128.86,35.62,136.53,165.37,122.48,229.79-1.8,11.62-19.44,117.18-80.1,226-84.78,152-213.07,236-371,242.91Zm282-657.2c-16.32,0-30.32,4.08-41.86,12.23-37.68,26.62-42.51,88.57-42.55,89.19-24.06,283.48-95.77,432.5-141.67,501,114.86-21.18,206.56-91.79,273.14-210.52,59-105.21,75.14-210.52,75.3-211.57.08-.58.19-1.17.32-1.73,1.24-5.69,29.28-141-87.92-173.4A131.43,131.43,0,0,0,3187.42,929.5Z" transform="translate(-606.36 -120.48)"/><ellipse class="cls-11" cx="2406.32" cy="1672.49" rx="41.66" ry="29.76" transform="translate(-909.24 2669.06) rotate(-57.21)"/><ellipse class="cls-11" cx="2574.17" cy="1894" rx="41.66" ry="29.76" transform="translate(-1018.51 2911.71) rotate(-57.21)"/><ellipse class="cls-11" cx="2308.59" cy="1935.86" rx="41.66" ry="29.76" transform="translate(-1175.45 2707.64) rotate(-57.21)"/><ellipse class="cls-11" cx="2544.39" cy="2210.97" rx="41.66" ry="29.76" transform="translate(-1298.62 3031.96) rotate(-57.21)"/><ellipse class="cls-11" cx="2857.89" cy="2306.94" rx="41.66" ry="29.76" transform="translate(-1235.59 3339.51) rotate(-57.21)"/><ellipse class="cls-3" cx="2308.59" cy="2269.03" rx="41.66" ry="29.76" transform="translate(-1455.52 2860.38) rotate(-57.21)"/><ellipse class="cls-11" cx="2608.47" cy="2412.88" rx="41.66" ry="29.76" transform="translate(-1438.98 3178.41) rotate(-57.21)"/><ellipse class="cls-11" cx="2385.7" cy="2506.14" rx="41.66" ry="29.76" transform="translate(-1619.5 3033.89) rotate(-57.21)"/><ellipse class="cls-11" cx="2816.7" cy="2072.15" rx="41.66" ry="29.76" transform="translate(-1057.09 3197.25) rotate(-57.21)"/><ellipse class="cls-11" cx="3088.9" cy="2137.28" rx="41.66" ry="29.76" transform="translate(-987.07 3455.94) rotate(-57.21)"/><g class="cls-1"><path class="cls-4" d="M2086.18,2162.73a360.11,360.11,0,0,1-16.31-36.61c.86-8,1.84-16.06,2.88-24.22A575.26,575.26,0,0,0,2086.18,2162.73Z" transform="translate(-606.36 -120.48)"/></g><g class="cls-1"><path class="cls-2" d="M3076.42,2349.09c-323.55,257.34-735.1,335.76-894.76,227.91-30.84-20.85-58.19-52.67-80-95.53-24.22-87.25-32.13-202-16.25-344.1A362.33,362.33,0,0,0,2101.7,2174c23.67,85.59,63,144.7,111,177.13,159.67,107.86,571.21,29.43,894.77-228,150.34-119.56,234.77-239.92,276.41-349.8C3401.09,1927.06,3340.26,2139.21,3076.42,2349.09Z" transform="translate(-606.36 -120.48)"/></g><g class="cls-1"><path class="cls-2" d="M2767.63,1210.26c51.13,52,110.63,129.35,145.52,231.77,9.65,28.3-20.69,53.56-46.87,39.13-59.93-33-152.8-67.42-252.92-41.7,98.41-85.53,194.8-34.4,194.8-34.4-2.58-99.88-68.3-199.7-68.3-199.7Q2754.11,1207.39,2767.63,1210.26Z" transform="translate(-606.36 -120.48)"/></g><g class="cls-1"><path class="cls-2" d="M2812.45,1547.86l60.35,11.22a48.56,48.56,0,0,1,33.18,72.11c-34.92,60.2-103.75,146.29-218.73,165.92l-2.58-.55c123.49-47.28,136.67-234.1,136.67-234.1A140.59,140.59,0,0,0,2812.45,1547.86Z" transform="translate(-606.36 -120.48)"/></g><g class="cls-1"><path class="cls-2" d="M3035.76,1933.41c-2.7,1.66-4.23,2.45-4.23,2.45,30.53-111.34-31.33-224.47-53.16-259.54-1.42-16.73-3.69-32.64-6.2-46.8-3.52-19.9,20.91-32.3,35-17.78C3062,1668.3,3131.63,1780.72,3035.76,1933.41Z" transform="translate(-606.36 -120.48)"/></g><g class="cls-1"><path class="cls-2" d="M3296.65,1802.44c-2.88,9.69-5,15.15-5,15.15-42.62-107.49-119.63-138.27-152.55-146.73-12.42-19-26.84-36.66-43.57-51.17-13.52-11.72-5.34-33.75,12.55-33.43C3168.16,1587.36,3262.2,1620,3296.65,1802.44Z" transform="translate(-606.36 -120.48)"/></g><g class="cls-1"><path class="cls-4" d="M1584,3340.71c-47.46-2.88-143.72,11-227.36,25.38a201.58,201.58,0,0,1,19.26-9.5c18-7.79,30-9.93,30-9.93s-22.75-305.17-83.33-676.67C1422.88,3230.77,1584,3340.71,1584,3340.71Z" transform="translate(-606.36 -120.48)"/></g><path class="cls-2" d="M3224.65,1155a225.72,225.72,0,0,1-40-3.72c-69.64-12.53-136.24-73.19-117.87-176.77,5.3-29.86,21.44-54.07,46.69-70,40.52-25.57,94.95-23.87,121.64-16.49,76.26,21.07,121.18,79.19,126.5,163.64,0,.51.05,1,.05,1.53v.06c.08,22.8-14.29,49.11-37.5,68.59C3308,1135.36,3275.8,1155,3224.65,1155ZM3195.1,931.54c-18.27,0-39.58,3.69-55.79,13.92-13.78,8.7-21.91,21-24.84,37.49-12.65,71.28,30.44,112,78.75,120.63,52.62,9.49,83.31-5,99.79-18.85,14.83-12.45,19.91-25.86,20.19-31-4.27-63.51-34.88-103.58-91-119.08A106.33,106.33,0,0,0,3195.1,931.54Z" transform="translate(-606.36 -120.48)"/><path class="cls-3" d="M1561.71,1972.46S1682.43,2049.05,1893,2073s338.17-13.08,408.91,77.88c111.83,143.78-7,323.5-138.62,371.43s-467.11,83.87-706.74-215.67" transform="translate(-606.36 -120.48)"/><path class="cls-2" d="M1553.21,1928.25c3.7,2.46,8.57,5.43,13,8.13,4.66,2.69,9.24,5.47,14,8.07,9.42,5.3,19.07,10.33,28.77,15.27,19.47,9.81,39.45,18.71,59.63,27.09a881.5,881.5,0,0,0,124.67,40.46c10.66,2.37,21.28,5,32,7.18l32.2,5.92c21.58,3.06,43.13,6.2,65.27,8.09,44,4.17,88.34,6,133.27,7.15,45,1.5,90.53,1.32,138.6,8.76,23.91,3.87,48.9,10.29,72.63,22.58a170.68,170.68,0,0,1,59.9,52,239.18,239.18,0,0,1,35.36,67.33,217.59,217.59,0,0,1,11.14,75.91,249.26,249.26,0,0,1-13.77,74.46,303.82,303.82,0,0,1-33.06,66.58,331.66,331.66,0,0,1-47.11,56.5,319.22,319.22,0,0,1-58.4,44.94,286.71,286.71,0,0,1-33.13,17.19c-5.72,2.47-11.71,4.82-17.45,6.93-5.7,1.94-11.42,4.08-17.13,5.74a592.6,592.6,0,0,1-69,16.83,734.47,734.47,0,0,1-140,11.7c-46.86-.58-93.81-5.25-139.83-15.07a690.12,690.12,0,0,1-134.2-43.32c-43.21-18.85-84-43-122-70.69-37.72-28-73-59.3-103.85-94.32-30.7-35.14-57.21-73.73-77.44-115.38a14.74,14.74,0,0,1,24-16.58l.2.21c30.85,32.68,60.36,65.07,91.52,95.58,31,30.62,63.38,59.57,98.88,84.27a641.37,641.37,0,0,0,235.05,103.63c84.2,18.72,172.75,20.36,257.85,5.44a538.66,538.66,0,0,0,62.48-14.83c5.13-1.45,10-3.27,15-4.91,4.83-1.78,9.34-3.57,14-5.54a233.74,233.74,0,0,0,26.86-14,265.57,265.57,0,0,0,48.56-37.4A277.09,277.09,0,0,0,2281,2393a249.69,249.69,0,0,0,27-54.25,194.88,194.88,0,0,0,10.79-58c1.43-39.09-11.89-77.14-35.72-109.09a115.13,115.13,0,0,0-41.16-36c-16.39-8.51-35.59-13.8-56.11-17.08-41.16-6.49-86.17-6.66-131.26-8.07-45.22-1.17-91.09-3-136.87-7.37-22.81-2-45.91-5.25-69-8.56l-34.33-6.31c-11.38-2.36-22.69-5.1-34-7.64a937,937,0,0,1-132.47-43c-21.46-8.9-42.69-18.37-63.51-28.85-10.39-5.3-20.74-10.7-31-16.45-5.13-2.8-10.21-5.87-15.31-8.82-5.18-3.16-10-6-15.65-9.81a27.45,27.45,0,1,1,30.37-45.74Z" transform="translate(-606.36 -120.48)"/><path class="cls-2" d="M1778,2555.36a27.44,27.44,0,0,1-25.34-16.88c-68.55-164.12-46.66-289-16.23-364.86,33.39-83.21,83.73-127,85.86-128.83a27.46,27.46,0,0,1,35.81,41.63c-7.16,6.24-170.76,153.19-54.77,430.9a27.46,27.46,0,0,1-25.33,38Z" transform="translate(-606.36 -120.48)"/><g class="cls-1"><path class="cls-2" d="M2161.72,2512.15a470.83,470.83,0,0,1-50.07,14.85,901.45,901.45,0,0,1-149.48,17.21.68.68,0,0,1-.49,0,770.74,770.74,0,0,1-120.53-5.78c-320-41.07-557-347.85-509.12-395.75,31.06-31.06,53.67-1.8,153.14,57.91,54.11,32.55,131.09,74.18,244.59,120,305.29,123.32,574.73-102.63,601.57-126.05C2383,2326.39,2277.28,2470.09,2161.72,2512.15Z" transform="translate(-606.36 -120.48)"/></g><g class="cls-1"><path class="cls-2" d="M3066.05,2985.15c-32,247.63-375.43,327.47-527.21,247.63-120.77-63.61-367.41-375.43-367.41-375.43-119.84,63.87-270,63.87-270,63.87l4.9,610.52c6.34,51.93-20.87,102.5-68,125.18-142.34,68.53-303.8,82-406.93,72.56-140.47-12.79-207.07-149.1-173.15-259.06,12.24,149.43,423.89,109.46,473.34,47.9C1786.06,3450.41,1761,2977,1761,2977c-53.29-22.53-100.84-58.13-137.32-90.84-30.94-27.76-12.09-79,29.45-80.6,229-8.6,469.92-36.62,565.51-86.32,47.82-24.86,106.73-9.29,136.42,35.7l85.69,129.85c31.57,47.84,96.35,59.87,143.31,27,196.9-137.85,354.8-120.53,448.48-85.63,21.18,28.39,34.73,64.79,36.09,111.26A306.41,306.41,0,0,1,3066.05,2985.15Z" transform="translate(-606.36 -120.48)"/></g><path class="cls-12" d="M2581.12,561.51a274.3,274.3,0,0,1-38.93-171.71c15.55-151.43,150.91-261.59,302.35-246s261.59,150.91,246,302.35-150.91,261.59-302.35,246a274.49,274.49,0,0,1-114.95-38.57l-127.56,28.61Z" transform="translate(-606.36 -120.48)"/><g class="cls-7"><path class="cls-3" d="M2839.12,196.5c-141.46-14.53-268.87,80.65-297.71,216.69a275,275,0,0,1,1.4-29.4c15.54-151.44,150.91-261.6,302.35-246s261.59,150.92,246,302.35a278.77,278.77,0,0,1-4.6,29.22C3086.07,330.18,2980.63,211,2839.12,196.5Z" transform="translate(-606.36 -120.48)"/></g><path class="cls-2" d="M2816.61,715.43a298.31,298.31,0,0,1-30.61-1.57,294.61,294.61,0,0,1-116.35-37.11l-155.29,34.83,43.16-147.14a294.6,294.6,0,0,1-37-176.87c16.76-163.16,163.11-282.29,326.29-265.51a297.47,297.47,0,0,1,265.52,326.28C3096.59,601.22,2967.09,715.43,2816.61,715.43ZM2677.1,630.36l7.52,4.58a251.52,251.52,0,0,0,105.84,35.51c139.26,14.28,264.12-87.35,278.42-226.57a253.82,253.82,0,0,0-226.57-278.42c-139.24-14.33-264.12,87.35-278.42,226.57a251.52,251.52,0,0,0,35.84,158.1l5,8.25-27.69,94.41Z" transform="translate(-606.36 -120.48)"/><g class="cls-1"><path class="cls-2" d="M2579.57,558.87c75.5,63.85,179.51,91.82,282.79,66.11,114.55-28.51,198.95-115.73,229.3-221.59a277.16,277.16,0,0,1-1.08,42.72c-15.55,151.44-150.91,261.59-302.35,246a274.49,274.49,0,0,1-114.95-38.57l-127.56,28.61,35.4-120.68C2580.59,560.64,2580.09,559.74,2579.57,558.87Z" transform="translate(-606.36 -120.48)"/></g><path class="cls-3" d="M2728.25,340.56h0c23.85-23.86,62.53-19.58,86.38,4.27l3.71,3.71,3.71-3.71c23.86-23.85,62.53-28.13,86.39-4.27h0a61.09,61.09,0,0,1,0,86.38l-3.71,3.71-75,75a16.1,16.1,0,0,1-22.77,0l-75-75-3.71-3.71A61.07,61.07,0,0,1,2728.25,340.56Z" transform="translate(-606.36 -120.48)"/></svg>