<svg id="Capa_1" data-name="Capa 1" xmlns="http://www.w3.org/2000/svg" viewBox="0 0 58 58"><defs><style>.cls-1{fill:#fff;}</style></defs><path class="cls-1" d="M0,58,5,43A28.48,28.48,0,1,1,16.24,53.73ZM47.68,38c-1.31-2.49-6.17-5.34-6.17-5.34-1.09-.62-2.42-.69-3,.42a25,25,0,0,1-2,2.17,3.7,3.7,0,0,1-5.25-.52l-4-4-4-4a3.7,3.7,0,0,1-.52-5.25,24.63,24.63,0,0,1,2.17-2c1.11-.63,1-2,.42-3.05,0,0-2.85-4.86-5.33-6.17a2.73,2.73,0,0,0-3.21.48l-1.76,1.76C9.48,18.13,12.22,24.43,17.8,30l5.1,5.09L28,40.2c5.58,5.58,11.88,8.32,17.45,2.75l1.76-1.76A2.72,2.72,0,0,0,47.68,38Z" transform="translate(0 0)"/></svg>