<svg id="Layer_1" data-name="Layer 1" xmlns="http://www.w3.org/2000/svg" xmlns:xlink="http://www.w3.org/1999/xlink" viewBox="0 0 204 204"><defs><style>.cls-1{fill:url(#linear-gradient);}.cls-2{fill:#fff;}</style><linearGradient id="linear-gradient" x1="-12.47" y1="102.31" x2="228.09" y2="101.43" gradientTransform="matrix(1, 0, 0, -1, 0, 203.89)" gradientUnits="userSpaceOnUse"><stop offset="0" stop-color="#aa367c"/><stop offset="1" stop-color="#4a2fbd"/></linearGradient></defs><path class="cls-1" d="M187.64,69.9c5.45-2,11.59.71,13.06,6.35a102,102,0,1,1-25.91-45.7c4.08,4.15,3.29,10.83-1.26,14.46s-11.15,2.82-15.33-1.23a80.9,80.9,0,1,0,22.62,39.91C179.5,78,182.19,72,187.64,69.9Z" transform="translate(0 0)"/><path class="cls-2" d="M124.52,96a6.34,6.34,0,1,0-6.34,6.08A6.14,6.14,0,0,0,124.52,96Zm-4.25,0a2.09,2.09,0,1,1-2.09-2.13A2,2,0,0,1,120.27,96ZM138,90.27h-5.51L114.15,115h5.51Zm-10.37,19a6.34,6.34,0,1,0,6.34-6.08A6.14,6.14,0,0,0,127.65,109.24Zm4.25,0a2.09,2.09,0,1,1,2.09,2.12A2,2,0,0,1,131.9,109.24Z" transform="translate(0 0)"/><path class="cls-2" d="M70.12,96.46a.84.84,0,0,1-1-.94v-4.1a.84.84,0,0,1,1-.94h9.17c.67,0,.95.28.95.94V114c0,.67-.28,1-.95,1H74.53c-.66,0-.94-.28-.94-1v-17c0-.46-.18-.6-.6-.6Z" transform="translate(0 0)"/><path class="cls-2" d="M88.81,108a11.29,11.29,0,0,0,5.71,1.58c2.9,0,4.55-1,4.55-2.66s-1.61-2.63-4.87-2.63a22.11,22.11,0,0,0-6,.91,3.93,3.93,0,0,1-.49.07c-.46,0-.67-.28-.63-.87l.77-12.78c0-.87.35-1.15,1.19-1.15h14.49c.67,0,.95.28.95.94v3.89c0,.7-.28.94-.95.94H94.2c-.42,0-.56.14-.59.56l-.18,2.42a16.35,16.35,0,0,1,3.47-.35c5.63,0,9,3,9,7.7,0,5-4,8.89-11.23,8.89A15.3,15.3,0,0,1,86,113c-.42-.28-.62-.53-.62-.84a1.91,1.91,0,0,1,.27-.81l1.65-3c.28-.46.45-.67.74-.67A1.69,1.69,0,0,1,88.81,108Z" transform="translate(0 0)"/></svg>