<svg id="Layer_1" data-name="Layer 1" xmlns="http://www.w3.org/2000/svg" xmlns:xlink="http://www.w3.org/1999/xlink" viewBox="0 0 204 204"><defs><style>.cls-1{fill:url(#linear-gradient);}.cls-2{fill:#fff;}</style><linearGradient id="linear-gradient" x1="-12.47" y1="102.31" x2="228.09" y2="101.43" gradientTransform="matrix(1, 0, 0, -1, 0, 203.89)" gradientUnits="userSpaceOnUse"><stop offset="0" stop-color="#aa367c"/><stop offset="1" stop-color="#4a2fbd"/></linearGradient></defs><path class="cls-1" d="M187.64,69.9c5.45-2,11.59.71,13.06,6.35a102,102,0,1,1-25.91-45.7c4.08,4.15,3.29,10.83-1.26,14.46s-11.15,2.82-15.33-1.23a80.9,80.9,0,1,0,22.62,39.91C179.5,78,182.19,72,187.64,69.9Z" transform="translate(0 0)"/><path class="cls-2" d="M124.52,96a6.34,6.34,0,1,0-6.34,6.08A6.14,6.14,0,0,0,124.52,96Zm-4.25,0a2.09,2.09,0,1,1-2.09-2.13A2,2,0,0,1,120.27,96ZM138,90.27h-5.51L114.15,115h5.51Zm-10.37,19a6.34,6.34,0,1,0,6.34-6.08A6.14,6.14,0,0,0,127.65,109.24Zm4.25,0a2.09,2.09,0,1,1,2.09,2.12A2,2,0,0,1,131.9,109.24Z" transform="translate(0 0)"/><path class="cls-2" d="M80.3,92.71v13h2.6c.73,0,1.08.32,1.08,1v3.43c0,.74-.28,1-1.08,1H80.3v3.15c0,.7-.28,1-1,1H74.74c-.74,0-1-.31-1-1v-3.15H63.22c-1.4,0-2.1-.74-2.1-1.54s.28-1.19,1.12-2.14L75.3,92.29c1.4-1.54,2.17-2.1,3-2.1C79.57,90.19,80.3,91,80.3,92.71Zm-10.6,13H74v-5Z" transform="translate(0 0)"/><path class="cls-2" d="M96.47,90.33c6.69,0,10.71,4.83,10.71,12.57,0,8-4,12.91-10.71,12.91s-10.71-4.76-10.71-12.56C85.76,95.27,89.79,90.33,96.47,90.33Zm0,6c-2.55,0-3.92,2.48-3.92,6.79s1.37,6.72,3.92,6.72,3.89-2.56,3.89-6.76S99,96.32,96.47,96.32Z" transform="translate(0 0)"/></svg>