<svg id="Layer_1" data-name="Layer 1" xmlns="http://www.w3.org/2000/svg" xmlns:xlink="http://www.w3.org/1999/xlink" viewBox="0 0 204 204"><defs><style>.cls-1{fill:url(#linear-gradient);}.cls-2{fill:#fff;}</style><linearGradient id="linear-gradient" x1="-12.47" y1="102.31" x2="228.09" y2="101.43" gradientTransform="matrix(1, 0, 0, -1, 0, 203.89)" gradientUnits="userSpaceOnUse"><stop offset="0" stop-color="#aa367c"/><stop offset="1" stop-color="#4a2fbd"/></linearGradient></defs><path class="cls-1" d="M187.64,69.9c5.45-2,11.59.71,13.06,6.35a102,102,0,1,1-25.91-45.7c4.08,4.15,3.29,10.83-1.26,14.46s-11.15,2.82-15.33-1.23a80.9,80.9,0,1,0,22.62,39.91C179.5,78,182.19,72,187.64,69.9Z" transform="translate(0 0)"/><path class="cls-2" d="M124.52,96a6.34,6.34,0,1,0-6.34,6.08A6.14,6.14,0,0,0,124.52,96Zm-4.25,0a2.09,2.09,0,1,1-2.09-2.13A2,2,0,0,1,120.27,96ZM138,90.27h-5.51L114.15,115h5.51Zm-10.37,19a6.34,6.34,0,1,0,6.34-6.08A6.14,6.14,0,0,0,127.65,109.24Zm4.25,0a2.09,2.09,0,1,1,2.09,2.12A2,2,0,0,1,131.9,109.24Z" transform="translate(0 0)"/><path class="cls-2" d="M77.54,90.82c.52,0,.77.14.77.46a1,1,0,0,1-.28.63L73.13,98a5.35,5.35,0,0,1,1.47-.18c5.18,0,8.79,3.19,8.79,8.54,0,5.57-4.49,9.45-10.54,9.45s-10.22-3.57-10.22-9.17c0-3.11.8-5.46,3.6-9.31l4-5.53a1.67,1.67,0,0,1,1.78-1Zm-1,15.75a3.58,3.58,0,0,0-7.14.07,3.25,3.25,0,0,0,3.47,3.29A3.36,3.36,0,0,0,76.59,106.57Z" transform="translate(0 0)"/><path class="cls-2" d="M96.4,90.33c6.69,0,10.71,4.83,10.71,12.57,0,8-4,12.91-10.71,12.91s-10.71-4.76-10.71-12.56C85.69,95.27,89.72,90.33,96.4,90.33Zm0,6c-2.55,0-3.92,2.48-3.92,6.79s1.37,6.72,3.92,6.72,3.89-2.56,3.89-6.76S98.92,96.32,96.4,96.32Z" transform="translate(0 0)"/></svg>