<svg id="Layer_1" data-name="Layer 1" xmlns="http://www.w3.org/2000/svg" xmlns:xlink="http://www.w3.org/1999/xlink" viewBox="0 0 204 204"><defs><style>.cls-1{fill:url(#linear-gradient);}.cls-2{fill:#fff;}</style><linearGradient id="linear-gradient" x1="-12.47" y1="102.31" x2="228.09" y2="101.43" gradientTransform="matrix(1, 0, 0, -1, 0, 203.89)" gradientUnits="userSpaceOnUse"><stop offset="0" stop-color="#aa367c"/><stop offset="1" stop-color="#4a2fbd"/></linearGradient></defs><path class="cls-1" d="M187.64,69.9c5.45-2,11.59.71,13.06,6.35a102,102,0,1,1-25.91-45.7c4.08,4.15,3.29,10.83-1.26,14.46s-11.15,2.82-15.33-1.23a80.9,80.9,0,1,0,22.62,39.91C179.5,78,182.19,72,187.64,69.9Z" transform="translate(0 0)"/><path class="cls-2" d="M124.52,96a6.34,6.34,0,1,0-6.34,6.08A6.14,6.14,0,0,0,124.52,96Zm-4.25,0a2.09,2.09,0,1,1-2.09-2.13A2,2,0,0,1,120.27,96ZM138,90.27h-5.51L114.15,115h5.51Zm-10.37,19a6.34,6.34,0,1,0,6.34-6.08A6.14,6.14,0,0,0,127.65,109.24Zm4.25,0a2.09,2.09,0,1,1,2.09,2.12A2,2,0,0,1,131.9,109.24Z" transform="translate(0 0)"/><path class="cls-2" d="M62.66,95.83v-4a.92.92,0,0,1,1.05-1h19c.7,0,1,.21,1,.63a1.54,1.54,0,0,1-.21.7L73.34,114.24a1.46,1.46,0,0,1-1.58,1.08H67c-.66,0-1-.17-1-.56a1.72,1.72,0,0,1,.21-.7l8.26-17.18H63.71A.92.92,0,0,1,62.66,95.83Z" transform="translate(0 0)"/><path class="cls-2" d="M95.88,90.33c6.68,0,10.71,4.83,10.71,12.57,0,8-4,12.91-10.71,12.91s-10.71-4.76-10.71-12.56C85.17,95.27,89.19,90.33,95.88,90.33Zm0,6c-2.56,0-3.92,2.48-3.92,6.79s1.36,6.72,3.92,6.72,3.88-2.56,3.88-6.76S98.4,96.32,95.88,96.32Z" transform="translate(0 0)"/></svg>