<svg id="Layer_1" data-name="Layer 1" xmlns="http://www.w3.org/2000/svg" xmlns:xlink="http://www.w3.org/1999/xlink" viewBox="0 0 204 204"><defs><style>.cls-1{fill:url(#linear-gradient);}.cls-2{fill:#fff;}</style><linearGradient id="linear-gradient" x1="-12.47" y1="102.31" x2="228.09" y2="101.43" gradientTransform="matrix(1, 0, 0, -1, 0, 203.89)" gradientUnits="userSpaceOnUse"><stop offset="0" stop-color="#aa367c"/><stop offset="1" stop-color="#4a2fbd"/></linearGradient></defs><path class="cls-1" d="M187.64,69.9c5.45-2,11.59.71,13.06,6.35a102,102,0,1,1-25.91-45.7c4.08,4.15,3.29,10.83-1.26,14.46s-11.15,2.82-15.33-1.23a80.9,80.9,0,1,0,22.62,39.91C179.5,78,182.19,72,187.64,69.9Z" transform="translate(0 0)"/><path class="cls-2" d="M124.52,96a6.34,6.34,0,1,0-6.34,6.08A6.14,6.14,0,0,0,124.52,96Zm-4.25,0a2.09,2.09,0,1,1-2.09-2.13A2,2,0,0,1,120.27,96ZM138,90.27h-5.51L114.15,115h5.51Zm-10.37,19a6.34,6.34,0,1,0,6.34-6.08A6.14,6.14,0,0,0,127.65,109.24Zm4.25,0a2.09,2.09,0,1,1,2.09,2.12A2,2,0,0,1,131.9,109.24Z" transform="translate(0 0)"/><path class="cls-2" d="M73,90.33c5.77,0,9.24,2.94,9.24,7.28a5.2,5.2,0,0,1-2.87,5.08,5.85,5.85,0,0,1,3.89,5.6c0,5.07-4.45,7.52-10.58,7.52s-10.25-2.48-10.25-7.42a5.87,5.87,0,0,1,3.92-5.7,5.3,5.3,0,0,1-2.91-5.08C63.43,93.31,67.11,90.33,73,90.33Zm3.43,17.47c0-1.51-1.37-2.45-3.57-2.45s-3.57.94-3.57,2.45,1.19,2.48,3.53,2.48S76.42,109.34,76.42,107.8Zm-.74-9.63c0-1.43-1.05-2.31-2.83-2.31S70,96.7,70,98.14s1,2.27,2.84,2.27S75.68,99.57,75.68,98.17Z" transform="translate(0 0)"/><path class="cls-2" d="M96.4,90.33c6.69,0,10.71,4.83,10.71,12.57,0,8-4,12.91-10.71,12.91s-10.71-4.76-10.71-12.56C85.69,95.27,89.72,90.33,96.4,90.33Zm0,6c-2.55,0-3.92,2.48-3.92,6.79s1.37,6.72,3.92,6.72,3.89-2.56,3.89-6.76S98.92,96.32,96.4,96.32Z" transform="translate(0 0)"/></svg>