<svg id="Layer_1" data-name="Layer 1" xmlns="http://www.w3.org/2000/svg" xmlns:xlink="http://www.w3.org/1999/xlink" viewBox="0 0 204 204"><defs><style>.cls-1{fill:url(#linear-gradient);}.cls-2{fill:#fff;}</style><linearGradient id="linear-gradient" x1="-12.47" y1="102.31" x2="228.09" y2="101.43" gradientTransform="matrix(1, 0, 0, -1, 0, 203.89)" gradientUnits="userSpaceOnUse"><stop offset="0" stop-color="#aa367c"/><stop offset="1" stop-color="#4a2fbd"/></linearGradient></defs><path class="cls-1" d="M187.64,69.9c5.45-2,11.59.71,13.06,6.35a102,102,0,1,1-25.91-45.7c4.08,4.15,3.29,10.83-1.26,14.46s-11.15,2.82-15.33-1.23a80.9,80.9,0,1,0,22.62,39.91C179.5,78,182.19,72,187.64,69.9Z" transform="translate(0 0)"/><path class="cls-2" d="M124.52,96a6.34,6.34,0,1,0-6.34,6.08A6.14,6.14,0,0,0,124.52,96Zm-4.25,0a2.09,2.09,0,1,1-2.09-2.13A2,2,0,0,1,120.27,96ZM138,90.27h-5.51L114.15,115h5.51Zm-10.37,19a6.34,6.34,0,1,0,6.34-6.08A6.14,6.14,0,0,0,127.65,109.24Zm4.25,0a2.09,2.09,0,1,1,2.09,2.12A2,2,0,0,1,131.9,109.24Z" transform="translate(0 0)"/><path class="cls-2" d="M63.31,99.44c0-5.57,4.52-9.45,10.58-9.45s10.18,3.57,10.18,9.17c0,3.18-.8,5.42-3.57,9.31l-4,5.53a1.72,1.72,0,0,1-1.82,1H69.16c-.52,0-.77-.14-.77-.46a1.28,1.28,0,0,1,.28-.63l4.9-6.09a5.25,5.25,0,0,1-1.43.18C67,108,63.31,104.79,63.31,99.44Zm14-.28a3.27,3.27,0,0,0-3.5-3.29,3.31,3.31,0,0,0-3.64,3.36,3.58,3.58,0,0,0,7.14-.07Z" transform="translate(0 0)"/><path class="cls-2" d="M101.78,90.48c.53,0,.77.14.77.45a1,1,0,0,1-.28.63l-4.9,6.09a5.94,5.94,0,0,1,1.47-.17c5.18,0,8.79,3.18,8.79,8.54,0,5.56-4.48,9.45-10.54,9.45s-10.22-3.57-10.22-9.17c0-3.12.8-5.46,3.6-9.31l4-5.53a1.67,1.67,0,0,1,1.78-1Zm-.94,15.75a3.59,3.59,0,0,0-7.15.07,3.25,3.25,0,0,0,3.47,3.29A3.36,3.36,0,0,0,100.84,106.23Z" transform="translate(0 0)"/></svg>