<svg id="Layer_1" data-name="Layer 1" xmlns="http://www.w3.org/2000/svg" viewBox="0 0 595.3 597.28"><defs><style>.cls-1{fill:#fff;}.cls-2{fill:none;}</style></defs><path class="cls-1" d="M585.92,214.1V455.49c-1.51.2-1.4,1.46-1.71,2.33C575.63,481.63,557.16,494,529.83,494q-232.19,0-464.37,0C32,494,9.41,473.46,9.4,443.18q0-112.77,0-225.54v-4.7a20.36,20.36,0,0,1,2,.83q117.12,70.65,234.21,141.31c34.46,20.8,69.4,20.89,103.9.1q116.19-70,232.38-140C583,214.49,583.94,212.28,585.92,214.1Z"/><path class="cls-1" d="M585.92,160.12c-.3.16-.83.27-.88.48-3.82,15.75-15.56,25.46-29.83,34Q443.44,261.51,332.1,329c-24.74,14.91-44.07,14.93-68.66.1L34.34,190.89c-21.09-12.72-29.44-32.31-22.7-53.24,6.45-20.06,26.75-33.78,50.88-34.37,1.68,0,3.37,0,5.06,0H527.5c30.76,0,48.29,11.81,57.34,38.6.12.37.71.62,1.08.93Z"/><line class="cls-2" x2="595.28"/><line class="cls-2" x1="0.02" y1="597.28" x2="595.3" y2="597.28"/></svg>