<svg id="Layer_1" data-name="Layer 1" xmlns="http://www.w3.org/2000/svg" viewBox="0 0 45.86 44.73"><defs><style>.cls-1{fill:#fff;}</style></defs><path class="cls-1" d="M22.93.57a22.93,22.93,0,0,0-7.25,44.68c1.15.22,1.52-.49,1.52-1.1V39.88c-6.38,1.39-7.71-2.7-7.71-2.7a6.08,6.08,0,0,0-2.55-3.36c-2.08-1.42.16-1.39.16-1.39a4.81,4.81,0,0,1,3.52,2.36c2,3.51,5.36,2.49,6.67,1.91a4.84,4.84,0,0,1,1.46-3.07C13.65,33.05,8.3,31.08,8.3,22.3a8.91,8.91,0,0,1,2.36-6.16,8.23,8.23,0,0,1,.22-6.06s1.93-.62,6.31,2.35a21.51,21.51,0,0,1,11.48,0c4.38-3,6.3-2.35,6.3-2.35a8.2,8.2,0,0,1,.23,6.06,8.88,8.88,0,0,1,2.36,6.16c0,8.81-5.36,10.75-10.47,11.31a5.5,5.5,0,0,1,1.57,4.25v6.29c0,.61.37,1.33,1.53,1.1A22.93,22.93,0,0,0,22.93.57Z" transform="translate(0 -0.57)"/></svg>