<svg id="Layer_1" data-name="Layer 1" xmlns="http://www.w3.org/2000/svg" viewBox="0 0 225.04 225.03"><defs><style>.cls-1{fill:#fff;}</style></defs><path class="cls-1" d="M.09,201.14V23.39a9.6,9.6,0,0,0,.42-1.68A20.08,20.08,0,0,1,2,16.11C5.76,7,12.56,1.79,22.27.3a6.64,6.64,0,0,0,2-.21H201.13c.67,0,1.31.36,2,.2l1.3.21c12.47,2.07,20.43,12.9,20.7,23.09,0,.25,0,.51,0,.76q0,87.81,0,175.61c0,.54,0,1.09,0,1.64s0,1.32-.12,2a24.57,24.57,0,0,1-6.57,13.69,24.93,24.93,0,0,1-16.64,7.85l-2.08,0H25.78l-2,0a31.06,31.06,0,0,1-5-.83A25,25,0,0,1,.44,203.15C.55,202.44.13,201.82.09,201.14ZM122.14,99.69l-.24,0v-13c0-1.2,0-1.06-1.09-1.06-2.09,0-4.18,0-6.27,0H90.82c-1.16,0-1.09-.07-1.09,1.06v106c0,1.37-.13,1.25,1.22,1.25h29.56c1.51,0,1.38.22,1.38-1.42q0-27,0-53.94c0-1.72,0-3.44.17-5.16a29.18,29.18,0,0,1,2.19-9.47,17.29,17.29,0,0,1,12.27-10.52,24.36,24.36,0,0,1,8.29-.53,15.22,15.22,0,0,1,12.83,8.71,23.5,23.5,0,0,1,1.75,4.72,44.86,44.86,0,0,1,1.23,11.54q0,27.42,0,54.82c0,1.43-.06,1.25,1.24,1.25h30.76c1.49,0,1.38.24,1.38-1.42q0-32.58,0-65.15c0-2.89,0-5.78-.31-8.66a50.33,50.33,0,0,0-3.16-13.76c-3.85-9.72-10.57-16.58-20.46-20.12a44.12,44.12,0,0,0-21.43-2.08c-10.66,1.54-19.08,6.85-25.46,15.48C122.82,98.66,122.49,99.18,122.14,99.69Zm-53.87,40q0-26.46,0-52.93c0-1.41.1-1.24-1.23-1.24q-15.37,0-30.75,0c-1.75,0-1.53-.27-1.53,1.48V192.36c0,.22,0,.44,0,.66,0,.84,0,.84.84.86H66.78c1.65,0,1.48.25,1.48-1.43Q68.27,166.08,68.27,139.73Zm2.91-88.39a19.84,19.84,0,1,0-19.8,20A19.93,19.93,0,0,0,71.18,51.34Z" transform="translate(-0.09 -0.09)"/></svg>