<svg id="Layer_1" data-name="Layer 1" xmlns="http://www.w3.org/2000/svg" viewBox="0 0 394.7 171.09"><defs><style>.cls-1{fill:#fff;}</style></defs><path class="cls-1" d="M108.54,51.58a68.85,68.85,0,0,1,7.07,21.57,84.42,84.42,0,0,1,1.17,13,105.78,105.78,0,0,1-.81,14.13,68.09,68.09,0,0,1-5.8,21.75,54.18,54.18,0,0,1-10.33,15A42.94,42.94,0,0,1,73.2,149.81a10.29,10.29,0,0,1-2,.18h-2a39.57,39.57,0,0,1-10.78-1.45,35.47,35.47,0,0,1-9.33-4.08,29.58,29.58,0,0,1-7.16-6.25,22,22,0,0,1-4.26-8.16,7.26,7.26,0,0,1,10.24-8.61,6.93,6.93,0,0,1,3.53,4.26A10,10,0,0,0,54.17,130a19,19,0,0,0,4.71,3.26A21.26,21.26,0,0,0,65,135.13a27,27,0,0,0,7,.18,38.24,38.24,0,0,0,6.62-1.45,25.56,25.56,0,0,0,9.06-5.08,36.55,36.55,0,0,0,8.51-11q3.9-7.16,5.35-19.12A91.56,91.56,0,0,0,101.65,78,53,53,0,0,0,97,61a38.4,38.4,0,0,0-9.15-12.42,33.61,33.61,0,0,0-13.23-7.16,38.57,38.57,0,0,0-15.58-1.26A50.45,50.45,0,0,0,42.3,45.06,60,60,0,0,0,26.54,56.39,63.86,63.86,0,0,0,13.76,74.6a6.88,6.88,0,0,1-4.08,3.71A7,7,0,0,1,4.15,78,7.5,7.5,0,0,1,.44,73.78a7,7,0,0,1,.27-5.52A79,79,0,0,1,15.93,46.69,75.67,75.67,0,0,1,35.32,32.37a65.82,65.82,0,0,1,22-6.7,53.32,53.32,0,0,1,21.48,1.81Q98.4,33.29,108.54,51.58Z" transform="translate(0 -23.12)"/><path class="cls-1" d="M40.58,71a34.16,34.16,0,0,0-5.26,12.24,107.92,107.92,0,0,0-2.53,16q-.72,8.52-.72,17.13t.17,15.31c0,1.7,0,3.3.09,4.81s.1,2.93.1,4.26a7.07,7.07,0,0,1-2.06,5.16,6.9,6.9,0,0,1-5.1,2.08,6.87,6.87,0,0,1-5.1-2.08,7,7,0,0,1-2.06-5.16q0-2-.09-4.17t-.09-4.53q-.18-7.8-.18-17t.9-18.66Q21,73.33,29,62.28a7.77,7.77,0,0,1,4.86-2.81,6.64,6.64,0,0,1,5.25,1.35,7,7,0,0,1,3,4.72A6.8,6.8,0,0,1,40.58,71Z" transform="translate(0 -23.12)"/><path class="cls-1" d="M198.42,59.92a7.38,7.38,0,0,1,3.27,4.53,7.11,7.11,0,0,1-.73,5.44q-4.53,7.6-8.15,14t-8.25,14.95q-4.62,8.52-9.33,17.94-5.62,11.25-10,21T157.83,156a138.32,138.32,0,0,0-6.16,20,62.27,62.27,0,0,0-1.45,11,7.25,7.25,0,1,1-14.5,0q0-13.43,8.52-36.07l.54-1.45q-1.46-3.8-4.35-12.41t-6.16-18.94q-11.59-37-11.6-52a7.25,7.25,0,1,1,14.5,0,63.47,63.47,0,0,0,1.54,12.23q1.54,7.53,3.81,16.22t5.07,17.85q2.81,9.16,5.53,17.13,2.17-4.71,4.44-9.42t4.8-9.79q4.89-9.6,9.51-18.3t8.25-15.23q3.63-6.52,8.34-14.31a6.7,6.7,0,0,1,4.44-3.27A7.27,7.27,0,0,1,198.42,59.92Z" transform="translate(0 -23.12)"/><path class="cls-1" d="M225.42,135.49a7.38,7.38,0,0,1,3.18,2.72,7.21,7.21,0,0,1,1.17,4,7.11,7.11,0,0,1-7.24,7.25,9.28,9.28,0,0,1-7.25-3.26,13.07,13.07,0,0,1-2.09-2.81,26.06,26.06,0,0,1-2-4.71,53.87,53.87,0,0,1-1.81-7.52q-.82-4.53-1.54-11.42-.73-7.43-1-16.94t-.27-21.3q0-9.78.18-19t.45-16.4q.27-7.17.64-16a7.14,7.14,0,0,1,2.35-5.08,6.86,6.86,0,0,1,5.26-1.81,7.19,7.19,0,0,1,5.07,2.36,6.86,6.86,0,0,1,1.81,5.25q-.36,8.52-.63,15.41T221.26,62q-.19,9-.19,18.4,0,22.29,1.09,36.42A124.78,124.78,0,0,0,224,130.14,37.31,37.31,0,0,0,225.42,135.49Z" transform="translate(0 -23.12)"/><path class="cls-1" d="M306.84,135.49a6.42,6.42,0,0,1,3.94,6.34,7.11,7.11,0,0,1-7.25,7.25,9.12,9.12,0,0,1-7.07-3.26,12.35,12.35,0,0,1-2.08-3,21,21,0,0,1-1.72-5.17,75.89,75.89,0,0,1-1.27-8.15,115.77,115.77,0,0,1-.54-12.32c-1.21,2.29-2.36,4.44-3.45,6.43s-2.23,3.9-3.44,5.71q-8.7,13.59-17.94,17.76a22.37,22.37,0,0,1-9.43,2.17,21.51,21.51,0,0,1-9.42-2.17q-9.78-4.71-12.5-16.13-2.17-9.24.54-21a72.76,72.76,0,0,1,6.52-18,84.3,84.3,0,0,1,10.51-15.86,55.34,55.34,0,0,1,14.32-12.14,34.56,34.56,0,0,1,17.76-5.26,7.25,7.25,0,1,1,0,14.5,20.89,20.89,0,0,0-10.51,3.17,41.25,41.25,0,0,0-10.51,9.15,69.26,69.26,0,0,0-8.61,13,61.27,61.27,0,0,0-5.35,14.5q-2,8.7-.54,14.5.9,3.62,2.45,4.89a14.51,14.51,0,0,0,2.26,1.63,7.29,7.29,0,0,0,6.35,0,21,21,0,0,0,5-3.63,45.2,45.2,0,0,0,7-9.06,87.67,87.67,0,0,0,5.61-9.87q2.73-5.53,5.62-12.42,2.35-5.79,4.08-11.23t3.17-9.61q1.44-4.89,2.7-9.24a6.84,6.84,0,0,1,3-4.35,7.17,7.17,0,0,1,9.67,1.63,6.41,6.41,0,0,1,1.45,5.08q-.56,5.07-.82,9.33t-.54,9.69q-.29,5.44-.46,11.24-.36,8.7-.27,14.77t.37,10q.27,3.9.65,6.07A16.06,16.06,0,0,0,306.84,135.49Z" transform="translate(0 -23.12)"/><path class="cls-1" d="M365.33,58.11q13.41,0,21.56,12.32A40.6,40.6,0,0,1,393,84.57a72.89,72.89,0,0,1,1.72,17.94,102.87,102.87,0,0,1-2.62,20.93,132.43,132.43,0,0,1-7,21.65,7.2,7.2,0,0,1-2.81,3.18,7.44,7.44,0,0,1-6.79.63,7.53,7.53,0,0,1-3.9-4,6.3,6.3,0,0,1,.09-5.43q8.16-19.57,8.52-37.15A57,57,0,0,0,379,88.64a31.24,31.24,0,0,0-4.08-10.24q-4.17-5.79-9.6-5.8c-2.18,0-4.66,1.25-7.43,3.72s-5.47,6.5-8.07,12.05a111.23,111.23,0,0,0-7,21.66,206.34,206.34,0,0,0-4.35,32.53,6.86,6.86,0,0,1-2.18,4.62,7.33,7.33,0,0,1-4.71,2.08,7.19,7.19,0,0,1-5.08-1.54A6.71,6.71,0,0,1,324,143.1c0-.36-.18-1.87-.55-4.53s-.78-6.13-1.26-10.42-.91-9.12-1.27-14.5-.61-10.9-.73-16.58-.06-11.35.18-17a98,98,0,0,1,1.82-15.58,7.42,7.42,0,0,1,3.17-4.53,7.3,7.3,0,0,1,5.52-1.09A7.44,7.44,0,0,1,335.42,62a7,7,0,0,1,1.09,5.35,82.9,82.9,0,0,0-1.36,9.33q-.45,5-.63,10.24c.6-1.33,1.18-2.59,1.72-3.8s1.12-2.36,1.72-3.45q5.07-10.32,12-15.76A24.24,24.24,0,0,1,365.33,58.11Z" transform="translate(0 -23.12)"/></svg>