<svg id="eyzvMldh9Gi1" xmlns="http://www.w3.org/2000/svg" xmlns:xlink="http://www.w3.org/1999/xlink" viewBox="0 0 431.85 459.64"><defs><style>.cls-1,.cls-8{fill:none;}.cls-2{fill:url(#linear-gradient);}.cls-3{fill:url(#linear-gradient-2);}.cls-4{fill:url(#linear-gradient-3);}.cls-5{fill:#0a031b;}.cls-6{fill:#ff518c;}.cls-7{fill:url(#linear-gradient-4);}.cls-8{stroke-miterlimit:36;stroke-dashoffset:2659.74px;stroke-width:5px;stroke-dasharray:2659.74;stroke:url(#linear-gradient-5);}</style><linearGradient id="linear-gradient" x1="-120.71" y1="617.26" x2="-120.7" y2="616.63" gradientTransform="matrix(491.77, 0, 0, -491.77, 59575.34, 303546.3)" gradientUnits="userSpaceOnUse"><stop offset="0" stop-color="#152055"/><stop offset="1" stop-color="#0c0b33"/></linearGradient><linearGradient id="linear-gradient-2" x1="-120.9" y1="617.15" x2="-120.6" y2="615.92" gradientTransform="translate(59076.09 -85735.07) scale(486.96 139.87)" gradientUnits="userSpaceOnUse"><stop offset="0" stop-color="#2cdafa"/><stop offset="1" stop-color="#002b55"/></linearGradient><linearGradient id="linear-gradient-3" x1="-120.79" y1="616.47" x2="-120.31" y2="616.92" gradientTransform="matrix(381.17, 0, 0, -407.27, 46261.99, 251522.85)" gradientUnits="userSpaceOnUse"><stop offset="0" stop-color="#07103a"/><stop offset="1" stop-color="#7e93ff"/></linearGradient><linearGradient id="linear-gradient-4" x1="-119.72" y1="618.05" x2="-120.81" y2="616.79" gradientTransform="matrix(316.48, 0, 0, -154.1, 38404.64, 95486.4)" gradientUnits="userSpaceOnUse"><stop offset="0" stop-color="#7e93ff"/><stop offset="1" stop-color="#2d3a79"/></linearGradient><linearGradient id="linear-gradient-5" x1="-121.17" y1="616.83" x2="-120.2" y2="616.83" gradientTransform="matrix(410.33, 0, 0, -401.35, 49792.27, 247883.34)" gradientUnits="userSpaceOnUse"><stop offset="0" stop-color="#8fc2ff"/><stop offset="1" stop-color="#fff"/></linearGradient></defs><path class="cls-1" transform="translate(-84.73 -90.18)"/><circle class="cls-2" cx="215.92" cy="215.92" r="215.92"/><path class="cls-3" d="M84.91,479.63c0,36.83,128.85,70.19,248.29,70.19,62.49,0,69.62-29.69,99.13-43,26.9-12.12,80.2-20.14,80.2-37.69,0-36.83-91.48-42.15-210.92-42.15s-216.7,15.82-216.7,52.64Z" transform="translate(-84.73 -90.18)"/><path class="cls-4" d="M404.36,214.84c5.26,8.21,7.56,11.58,6.12,13s-7.78,4.46-14.7-.85c-17.52-12-29.29-65-57.63-54S353,289.34,395,330.5C438.41,373.1,457.72,408,437,448.27S357,497.51,280,478.62,143.73,397.67,110.62,343.85c39.59,11.12,80.89,6.5,116.42,6.56-3-4.28-6.18-8.6-9.52-12.94-7.44-9.67-17.27-17.69-28.08-24.19,35.66,1.51,75.87,2.71,108.07,7.65a139.46,139.46,0,0,1,43.14,14.18c-6.26-9.65-12.44-20.1-18.19-31.07-26.5-50.52-45-125.08-12.94-156.5s73.92-15.27,90.24,14.49,8.23,42.16.54,43.74a52.7,52.7,0,0,0,4.06,9.07Z" transform="translate(-84.73 -90.18)"/><path class="cls-5" d="M381.91,190.8c-2.31-22.34-22.06-22.92-16.08-25.72s23.66,4.38,31.9,17.2,10,21.53,2.5,23.77S384.9,215.67,381.91,190.8Z" transform="translate(-84.73 -90.18)"/><path class="cls-6" d="M393.28,227.44c-3.78-6.24-7.53-16.5-5.36-22s12.73-12.57,21.27,8.12,12.8,21.5,12.64,27.74S409.89,251,393.28,227.44Z" transform="translate(-84.73 -90.18)"/><path class="cls-7" d="M339.08,382.07c16.26,12,56.47,38.77,43.89,66.32s-55,41.41-127.32,14.54S121.59,364,107.45,342.08c122.88,1.95,163,2.12,231.63,40Z" transform="translate(-84.73 -90.18)"/><path class="cls-8" d="M294.5,457.7c64.82,10.94,115.93,6.46,132.86-26.51s-7.54-59.8-42.48-92.16S309,217.27,332.2,208.22s32.81,34.31,47.13,44.13c5.66,4.34,10.84,1.88,12,.7s-.7-4-5-10.66-8-18.09-9.36-23.89-6.14-13.88-8.07-10.33,3.55,16.15,9.84,14.85,13.37-5,3.83-23.82-47.6-37.55-73.81-11.85-11.08,86.67,10.59,128,50.71,73.61,60,73.88S356.6,338,299,329.15s-146.62-3-159.38-17.32,64.12-7.94,94,30.86,41.69,75.54,96.59,83.59,35.95-38.5-5.56-61.14-182.31-26.86-182.31-26.86S197.62,440.62,294.5,457.7Z" transform="translate(-84.73 -90.18)"/><path class="cls-1" transform="translate(-84.73 -90.18)"/></svg>